<svg xmlns="http://www.w3.org/2000/svg" width="100" height="100" viewBox="0 0 9.375 9.375" xml:space="preserve"><path d="m.586 4.688.027-.002a15.1 15.1 0 0 0 4.155-1.187 15 15 0 0 0 3.679-2.35l-.238.952a.195.195 0 0 0 .142.237.2.2 0 0 0 .047.006.195.195 0 0 0 .189-.148L8.978.633a.195.195 0 0 0-.189-.242H7.226a.195.195 0 0 0 0 .391h1.049a14.7 14.7 0 0 1-3.668 2.36A14.7 14.7 0 0 1 .559 4.298a.195.195 0 0 0 .027.39m8.203 3.906h-.195V3.32a.195.195 0 0 0-.195-.195H6.445a.195.195 0 0 0-.195.195v5.273h-.391V4.492a.195.195 0 0 0-.195-.195H3.711a.195.195 0 0 0-.195.195v4.102h-.391v-2.93a.195.195 0 0 0-.195-.195H.977a.195.195 0 0 0-.195.195v2.93H.586a.195.195 0 0 0 0 .391h8.203a.195.195 0 0 0 0-.391M6.641 3.516h1.563v5.078H6.641zM3.907 4.688H5.47v3.906H3.907zM1.172 5.859h1.563v2.734H1.172z" fill="#cbd5e1" data-original="#000000"/></svg>