<svg height="512" viewBox="0 0 512 512" width="512" xmlns="http://www.w3.org/2000/svg"><g style="fill:#cbd5e1;fill-opacity:1"><path d="M76.617 120.759c-3.705-7.41-12.716-10.415-20.125-6.708l-32.133 16.066c-7.41 3.705-10.413 12.715-6.708 20.125 3.717 7.434 12.74 10.401 20.125 6.708l32.133-16.066c7.409-3.706 10.412-12.716 6.708-20.125M24.358 28.42l32.133 16.067c7.399 3.699 16.414.714 20.125-6.708 3.705-7.41.702-16.42-6.708-20.125L37.775 1.587C30.365-2.118 21.356.886 17.65 8.295c-3.704 7.41-.701 16.42 6.708 20.125m417.734 112.463 32.134 16.066c7.4 3.7 16.414.712 20.124-6.708 3.705-7.41.702-16.42-6.708-20.125l-32.134-16.066c-7.406-3.702-16.418-.702-20.124 6.708s-.702 16.421 6.708 20.125m13.416-96.396 32.134-16.067c7.41-3.705 10.413-12.715 6.708-20.125s-12.714-10.413-20.124-6.708l-32.134 16.067c-7.41 3.705-10.413 12.715-6.708 20.125 3.719 7.438 12.743 10.398 20.124 6.708" style="fill:#cbd5e1;fill-opacity:1"/><ellipse cx="95.334" cy="264.033" rx="55.166" ry="55.167" transform="rotate(-9.25 95.27 264.378)" style="fill:#cbd5e1;fill-opacity:1"/><ellipse cx="416.667" cy="264.033" rx="55.166" ry="55.167" transform="rotate(-9.25 416.953 264.584)" style="fill:#cbd5e1;fill-opacity:1"/><path d="m179.153 350.736.762-.305a85 85 0 0 1-4.675-11.192 47.4 47.4 0 0 0-14.198-8.849l-8.461-3.385c-15.13 13.777-35.218 22.194-57.247 22.194-22.031 0-42.134-8.409-57.27-22.185l-8.438 3.376C11.629 337.588 0 354.766 0 374.154V497c0 8.284 6.716 15 15 15h118.247a44.8 44.8 0 0 1-2.58-15v-74.646c0-31.727 19.032-59.839 48.486-71.618m303.221-20.345-8.438-3.376c-15.136 13.776-35.24 22.185-57.27 22.185-22.029 0-42.117-8.417-57.246-22.194l-8.461 3.385a47.3 47.3 0 0 0-14.199 8.849 85 85 0 0 1-4.675 11.191l.766.306c29.451 11.777 48.483 39.889 48.483 71.617V497a44.8 44.8 0 0 1-2.58 15H497c8.284 0 15-6.716 15-15V374.154c0-19.388-11.629-36.566-29.626-43.763" style="fill:#cbd5e1;fill-opacity:1"/><path d="m321.708 378.591-8.438-3.376C298.134 388.991 278.031 397.4 256 397.4s-42.134-8.409-57.27-22.185l-8.438 3.376c-17.997 7.197-29.626 24.375-29.626 43.764V497c0 8.284 6.716 15 15 15h160.667c8.284 0 15-6.716 15-15v-74.646c0-19.388-11.628-36.566-29.625-43.763" style="fill:#cbd5e1;fill-opacity:1"/><ellipse cx="256" cy="312.234" rx="55.166" ry="55.167" transform="rotate(-9.25 256.078 312.738)" style="fill:#cbd5e1;fill-opacity:1"/><path d="M245.393 218.376a15 15 0 0 0 21.214 0l106.826-106.834c25.482-25.483 25.482-66.946 0-92.429C347.95-6.37 306.488-6.37 281.007 19.11L256 44.11l-25.006-24.998c-25.482-25.483-66.946-25.482-92.426-.002-25.575 25.565-25.532 66.911-.002 92.432z" style="fill:#cbd5e1;fill-opacity:1"/></g></svg>