<svg xmlns="http://www.w3.org/2000/svg" width="100" height="100" viewBox="0 0 682.667 682.667" xml:space="preserve"><defs><clipPath id="a" clipPathUnits="userSpaceOnUse"><path d="M0 512h512V0H0Z" fill="#cbd5e1" data-original="#000000"/></clipPath></defs><g clip-path="url(#a)" transform="matrix(1.33333 0 0 -1.33333 0 682.667)" fill="none" stroke="#cbd5e1" stroke-width="20" stroke-linecap="round" stroke-linejoin="round" stroke-miterlimit="10"><path d="M0 0h-33.334c-13.255 0-24 10.745-24 24v0c0 13.255 10.745 24 24 24h156.667c13.255 0 24-10.745 24-24v0c0-13.255-10.745-24-24-24H89.999" style="stroke-width:20;stroke-linecap:round;stroke-linejoin:round;stroke-miterlimit:10;stroke-dasharray:none;stroke-opacity:1" transform="translate(211 354)" data-original="#000000"/><path d="m0 0 83.774-131.326C142.501-223.387 76.377-344-32.82-344h-91.026c-109.198 0-175.322 120.613-116.595 212.674L-156.667 0" style="stroke-width:20;stroke-linecap:round;stroke-linejoin:round;stroke-miterlimit:10;stroke-dasharray:none;stroke-opacity:1" transform="translate(334.333 354)" data-original="#000000"/><path d="M0 0c11.524 11.524 30.208 11.524 41.731 0l.074-.073C53.3-11.568 71.927-11.601 83.463-.146l.294.292c11.535 11.455 30.163 11.422 41.658-.073l.073-.073c11.524-11.524 30.208-11.524 41.732 0v0c11.523 11.524 30.207 11.524 41.731 0l-26.11-91.284H26.175Z" style="stroke-width:20;stroke-linecap:round;stroke-linejoin:round;stroke-miterlimit:10;stroke-dasharray:none;stroke-opacity:1" transform="translate(151.524 493.284)" data-original="#000000"/><path d="M0 0s-18.065 13.686-39.766 7.167C-61.917.512-67.412-29.806-52.363-41.61c8.642-6.778 21.644-12.35 39.168-18.545 39.22-13.863 24.721-69.174-15.174-69.44-15.569-.103-22.847.885-36.524 9.832" style="stroke-width:20;stroke-linecap:round;stroke-linejoin:round;stroke-miterlimit:10;stroke-dasharray:none;stroke-opacity:1" transform="translate(283.493 236.117)" data-original="#000000"/><path d="M0 0v-177.667" style="stroke-width:20;stroke-linecap:round;stroke-linejoin:round;stroke-miterlimit:10;stroke-dasharray:none;stroke-opacity:1" transform="translate(256 264)" data-original="#000000"/></g></svg>