<svg height="100" viewBox="0 0 97.07 97.07" width="100" xmlns="http://www.w3.org/2000/svg"><path d="M8.496 97.07c0-.065 11.923-10.186 40.039-10.186 27.31 0 40.039 10.121 40.039 10.186z" fill="#f6cc90"/><path d="M48.535 86.885q-2.616.001-5.046.112c23.926 1.105 35.124 10.012 35.124 10.073h9.961c0-.065-12.729-10.186-40.039-10.186" fill="#f0c17f"/><path d="M66.717 16.414c-3.258 9.45-12.036 11.076-12.036 11.076s-5.817-6.965-2.644-16.169C55.379 1.626 64.158 0 64.158 0s5.859 6.842 2.559 16.414" fill="#c5e866"/><path d="M64.158 0s-2.32.43-5.029 2.165c1.488 2.745 3.333 7.895 1.143 14.249-1.576 4.571-4.444 7.312-6.985 8.923.746 1.376 1.394 2.153 1.394 2.153s8.779-1.626 12.036-11.076C70.017 6.842 64.158 0 64.158 0" fill="#b2d94b"/><path d="M48.154 49.862a1.465 1.465 0 0 1-1.398-1.903c.359-1.146 8.838-28.194 12.968-38.324a1.465 1.465 0 0 1 1.909-.803 1.465 1.465 0 0 1 .803 1.91c-4.084 10.015-12.797 37.813-12.885 38.093a1.465 1.465 0 0 1-1.397 1.028" fill="#6c8a13"/><path d="M48.154 93.198a1.465 1.465 0 0 1-1.465-1.465V47.702a1.465 1.465 0 0 1 2.93 0v44.031a1.465 1.465 0 0 1-1.465 1.465" fill="#6c8a13"/><path d="M57.965 60.839c-5.352.761-9.292-.333-9.292-.333s-3.407-13.673 7.241-24.355c11.216-11.252 24.562-7.549 24.562-7.549s2.928 11.16-4.83 21.531" fill="#9cc042"/><path d="M80.476 28.603s-3.579-.992-8.587-.388c1.353.17 2.141.388 2.141.388s2.928 11.16-4.83 21.531L51.519 60.839q-.293.041-.581.075c1.668.206 4.141.335 7.026-.075l17.681-10.705c7.758-10.371 4.83-21.531 4.83-21.531" fill="#85aa18"/><path d="M35.91 53.668c9.499 7.487 7.878 18.218 7.878 18.218s-10.257 3.925-19.509-3.367c-9.746-7.681-8.125-18.412-8.125-18.412s10.133-4.022 19.756 3.562" fill="#c5e866"/><path d="M25.017 38.227c9.564 12.186 23.253 10.09 23.253 10.09s4.994-13.173-4.322-25.043c-9.813-12.502-23.501-10.407-23.501-10.407s-5.118 13.015 4.57 25.359" fill="#9cc042"/><path d="M48.154 89.691a1.465 1.465 0 0 1-1.465-1.465c0-8.51-3.145-15.776-9.348-21.596-4.645-4.358-9.293-6.198-9.34-6.216a1.465 1.465 0 0 1-.833-1.896 1.465 1.465 0 0 1 1.896-.833c.211.082 5.228 2.068 10.281 6.81 4.687 4.397 10.273 12.084 10.273 23.733a1.465 1.465 0 0 1-1.465 1.465" fill="#6c8a13"/><path d="M73.172 66.363c-8.207 5.674-16.238 1.764-16.238 1.764s-.571-9.068 7.423-14.595c8.42-5.821 16.451-1.912 16.451-1.912s.677 8.995-7.636 14.742" fill="#c5e866"/><path d="M80.808 51.621s-4.186-2.037-9.683-.98c2.005.38 3.238.98 3.238.98s.677 8.994-7.637 14.742c-2.225 1.538-4.437 2.371-6.48 2.77 3.099.588 7.98.649 12.925-2.77 8.314-5.748 7.637-14.742 7.637-14.742" fill="#b2d94b"/><path d="M48.153 89.691a1.465 1.465 0 0 1-1.462-1.396c-.01-.214-.216-5.316 2.353-11.623 2.363-5.802 7.626-13.766 19.273-18.756a1.465 1.465 0 1 1 1.154 2.693c-8.617 3.692-14.576 9.468-17.713 17.168-2.328 5.716-2.142 10.334-2.139 10.38a1.465 1.465 0 0 1-1.465 1.533m-.496-40.514a1.47 1.47 0 0 1-1.307-.801C40.749 37.36 31.282 27.756 31.187 27.66a1.465 1.465 0 0 1 2.08-2.063c.401.404 9.887 10.03 15.696 21.45a1.465 1.465 0 0 1-1.304 2.129m.957 12.726a1.465 1.465 0 0 1-1.213-2.285c.404-.598 10.017-14.713 21.714-21.519a1.465 1.465 0 1 1 1.473 2.532c-11.124 6.474-20.665 20.487-20.76 20.628a1.46 1.46 0 0 1-1.215.646" fill="#6c8a13"/></svg>