<svg height="100pt" viewBox="0 0 100 100" width="100pt" xmlns="http://www.w3.org/2000/svg"><path d="M75.411 57.53c0-18.176-14.695-32.909-32.822-32.909S9.766 39.355 9.766 57.53s14.695 32.909 32.822 32.909S75.411 75.705 75.411 57.53m0 0" fill="#89c8fd"/><path d="M42.588 24.621c-1.684 0-3.34.127-4.956.373 15.775 2.396 27.866 16.05 27.866 32.536s-12.09 30.141-27.866 32.536a33 33 0 0 0 4.956.373c18.127 0 32.822-14.734 32.822-32.909S60.715 24.621 42.588 24.621m0 0" fill="#60b6ff"/><g fill="#baeb6c"><path d="M38.322 37.411c-5.056 3.169-8.849 8.238-6.004 13.941 2.844 5.703 9.164 3.485 15.011 2.693s1.422 17.268 4.898 21.704 13.272-4.436 12.325-10.139c-1.404-8.444-1.896-11.407 9.48-17.426l.03-.011C70.228 35.189 58.62 25.554 44.644 24.688l-.002.05s-1.264 9.505-6.32 12.674m24.83-5.53.007.005zm4.014 3.84.002.001zm-46.383 36.7c-1.518-2.315 2.686-7.762 3.634-11.881s-4.74-3.803-6.478-5.229-4.108-7.604-5.846-9.03l-.278-.219A32.9 32.9 0 0 0 9.766 57.53c0 10.878 5.264 20.522 13.377 26.513l.01-.69s1.264-5.387-2.37-10.932m0 0"/><path d="m64.551 65.61-.021-.123a32.7 32.7 0 0 1-2.727 7.223c1.867-2.203 3.114-4.89 2.747-7.101m0 0"/></g><path d="m44.643 24.687-.002.05s-.105.794-.377 1.997c11.51 4.356 19.937 15.012 21.096 27.774 1.45-1.984 4.103-3.908 8.67-6.324l.03-.011c-3.834-12.984-15.442-22.619-29.418-23.485m0 0" fill="#96d629"/><path d="M42.544 100a43 43 0 0 1-7.006-.578c-11.186-1.847-20.982-7.939-27.586-17.154S-1.27 61.819.578 50.634a1.49 1.49 0 0 1 1.709-1.225 1.486 1.486 0 0 1 1.225 1.709c-1.717 10.401.718 20.849 6.859 29.418s15.25 14.234 25.653 15.952c21.474 3.548 41.827-11.037 45.373-32.509 1.717-10.401-.718-20.849-6.859-29.418-6.14-8.569-15.25-14.234-25.652-15.952a1.487 1.487 0 0 1-1.225-1.709 1.49 1.49 0 0 1 1.709-1.225c11.186 1.847 20.983 7.939 27.586 17.154s9.222 20.45 7.375 31.635-7.94 20.981-17.155 27.583C59.886 97.27 51.335 100 42.544 100m0 0" fill="#09a66d"/><path d="M33.517 35.915C17.645 33.222 7.798 13.237 7.798 13.237S23.686-2.381 39.559.311s25.719 22.677 25.719 22.677S49.39 38.607 33.517 35.915m0 0" fill="#49cb5c"/><path d="M39.559.312c-3.031-.514-6.062-.359-8.983.226 15.209 3.415 24.591 22.451 24.591 22.451s-10.4 10.222-22.778 12.7q.559.127 1.128.226c15.872 2.692 31.761-12.927 31.761-12.927S55.431 3.004 39.558.312m0 0" fill="#07b128"/><path d="m64.38 21.329-15.522-2.618L34.359.042a27 27 0 0 0-3.433.428l13.599 17.51-11.704-1.975-9.987-12.921a48 48 0 0 0-2.726 1.337l8.39 10.855-19.354-3.265c-.869.759-1.346 1.228-1.346 1.228s.319.646.931 1.718l19.248 3.246-10.675 8.254a45 45 0 0 0 2.162 2.087l12.503-9.667 12.391 2.091-16.852 13.038c1.046.488 2.127.911 3.242 1.251l17.6-13.615 15.532 2.62c.9-.785 1.397-1.272 1.397-1.272s-.307-.622-.897-1.659m0 0" fill="#09a66d"/><path d="M76.073 16.517C80.331 6.442 95.084 3.05 95.084 3.05s7.85 12.943 3.592 23.019-19.011 13.467-19.011 13.467-7.85-12.943-3.592-23.019m0 0" fill="#49cb5c"/><path d="M95.084 3.049s-3.355.772-7.327 2.672c2.038 4.317 5.268 13.078 2.196 20.347-2.227 5.27-7.327 8.712-11.684 10.796.787 1.666 1.396 2.672 1.396 2.672s14.753-3.392 19.011-13.467S95.083 3.05 95.083 3.05m0 0" fill="#07b128"/><path d="m99.882 17.758-11.345 4.759 7.448-17.808c-.533-1.053-.902-1.66-.902-1.66s-.702.162-1.844.519l-7.698 18.404-4.773-11.745a20.4 20.4 0 0 0-2.264 2.329l5.409 13.31-5.081 12.147c.496.968.832 1.523.832 1.523s.763-.175 1.99-.564l5.247-12.543 12.976-5.443c.086-1.078.082-2.159.005-3.227m0 0" fill="#09a66d"/></svg>