<?xml version="1.0" encoding="UTF-8" standalone="no"?>
<!-- Generator: Adobe Illustrator 24.3.0, SVG Export Plug-In . SVG Version: 6.00 Build 0)  -->

<svg
   version="1.0"
   id="katman_1"
   x="0px"
   y="0px"
   viewBox="0 0 671.60656 185.09786"
   xml:space="preserve"
   sodipodi:docname="Environmental Defense Fund.svg"
   width="671.60657"
   height="185.09787"
   inkscape:version="1.3.2 (091e20e, 2023-11-25, custom)"
   xmlns:inkscape="http://www.inkscape.org/namespaces/inkscape"
   xmlns:sodipodi="http://sodipodi.sourceforge.net/DTD/sodipodi-0.dtd"
   xmlns:xlink="http://www.w3.org/1999/xlink"
   xmlns="http://www.w3.org/2000/svg"
   xmlns:svg="http://www.w3.org/2000/svg"><defs
   id="defs64" /><sodipodi:namedview
   id="namedview64"
   pagecolor="#ffffff"
   bordercolor="#000000"
   borderopacity="0.25"
   inkscape:showpageshadow="2"
   inkscape:pageopacity="0.0"
   inkscape:pagecheckerboard="0"
   inkscape:deskcolor="#d1d1d1"
   inkscape:zoom="1.4866953"
   inkscape:cx="309.41109"
   inkscape:cy="101.23124"
   inkscape:window-width="1920"
   inkscape:window-height="1141"
   inkscape:window-x="-9"
   inkscape:window-y="21"
   inkscape:window-maximized="1"
   inkscape:current-layer="katman_1" />
<style
   type="text/css"
   id="style1">
	.st0{clip-path:url(#SVGID_2_);}
	.st1{fill:#020203;}
	.st2{font-family:'BasierCircle-Bold';}
	.st3{font-size:11.7781px;}
	.st4{font-family:'BasierCircle-Regular';}
	.st5{letter-spacing:-1;}
	.st6{fill:#294999;}
	.st7{clip-path:url(#SVGID_4_);fill:#294999;}
	.st8{clip-path:url(#SVGID_4_);fill:#089939;}
	.st9{clip-path:url(#SVGID_4_);fill:#A2C623;}
	.st10{clip-path:url(#SVGID_4_);fill:#4DC2F1;}
</style>
<g
   id="g13"
   style="fill:#cbd5e1;fill-opacity:1"
   transform="translate(-111.61345,-196.63324)">
	<defs
   id="defs1">
		<rect
   id="SVGID_1_"
   x="86.089996"
   y="174.02"
   width="697.13"
   height="231.16" />
	</defs>
	<clipPath
   id="SVGID_2_">
		<use
   xlink:href="#SVGID_1_"
   style="overflow:visible"
   id="use1" />
	</clipPath>
	<g
   class="st0"
   clip-path="url(#SVGID_2_)"
   id="g4"
   style="fill:#cbd5e1;fill-opacity:1">
		<text
   transform="translate(-159.5938,97.5156)"
   id="text4"
   style="fill:#cbd5e1;fill-opacity:1"><tspan
     x="0"
     y="0"
     class="st1 st4 st3"
     id="tspan1"
     style="fill:#cbd5e1;fill-opacity:1">Cu</tspan><tspan
     x="13.32"
     y="0"
     class="st1 st4 st3"
     id="tspan2"
     style="fill:#cbd5e1;fill-opacity:1">r</tspan><tspan
     x="17.540001"
     y="0"
     class="st1 st4 st3"
     id="tspan3"
     style="fill:#cbd5e1;fill-opacity:1">r</tspan><tspan
     x="21.17"
     y="0"
     class="st1 st4 st3"
     id="tspan4"
     style="fill:#cbd5e1;fill-opacity:1">ent EDF color palette </tspan></text>
	</g>
	<g
   class="st0"
   clip-path="url(#SVGID_2_)"
   id="g5"
   style="fill:#cbd5e1;fill-opacity:1">
		<text
   transform="translate(-14.7812,97.5156)"
   class="st1 st2 st3"
   id="text5"
   style="fill:#cbd5e1;fill-opacity:1">(TWEAKED)</text>
	</g>
	<g
   class="st0"
   clip-path="url(#SVGID_2_)"
   id="g9"
   style="fill:#cbd5e1;fill-opacity:1">
		<text
   transform="translate(-159.5938,111.6562)"
   id="text9"
   style="fill:#cbd5e1;fill-opacity:1"><tspan
     x="0"
     y="0"
     class="st1 st4 st3"
     id="tspan5"
     style="fill:#cbd5e1;fill-opacity:1">BRIGHTER HEX/RGB IN “N</tspan><tspan
     x="123.35"
     y="0"
     class="st1 st4 st3"
     id="tspan6"
     style="fill:#cbd5e1;fill-opacity:1">A</tspan><tspan
     x="129.75"
     y="0"
     class="st1 st4 st3"
     id="tspan7"
     style="fill:#cbd5e1;fill-opacity:1">TURE” ORDER (SK</tspan><tspan
     x="214.48"
     y="0"
     class="st1 st4 st3 st5"
     id="tspan8"
     style="fill:#cbd5e1;fill-opacity:1">Y</tspan><tspan
     x="219.55"
     y="0"
     class="st1 st4 st3"
     id="tspan9"
     style="fill:#cbd5e1;fill-opacity:1">, GRASS, TREES, OCEAN)</tspan></text>
	</g>
	<g
   class="st0"
   clip-path="url(#SVGID_2_)"
   id="g12"
   style="fill:#cbd5e1;fill-opacity:1">
		<text
   transform="translate(-159.5938,125.7812)"
   id="text12"
   style="fill:#cbd5e1;fill-opacity:1"><tspan
     x="0"
     y="0"
     class="st1 st4 st3"
     id="tspan10"
     style="fill:#cbd5e1;fill-opacity:1">0</tspan><tspan
     x="6.04"
     y="0"
     class="st1 st4 st3 st5"
     id="tspan11"
     style="fill:#cbd5e1;fill-opacity:1">7</tspan><tspan
     x="10.35"
     y="0"
     class="st1 st4 st3"
     id="tspan12"
     style="fill:#cbd5e1;fill-opacity:1">.20.22</tspan></text>
	</g>
</g>
<polygon
   class="st6"
   points="358.95,211.35 340.99,211.35 340.99,222.69 358.61,222.69 358.61,231.53 340.99,231.53 340.99,243.61 358.95,243.61 358.95,252.45 330.94,252.45 330.94,202.51 358.95,202.51 "
   id="polygon13"
   style="fill:#cbd5e1;fill-opacity:1"
   transform="translate(-111.61345,-196.63324)" />
<g
   id="g39"
   style="fill:#cbd5e1;fill-opacity:1"
   transform="translate(-111.61345,-196.63324)">
	<defs
   id="defs13">
		<rect
   id="SVGID_3_"
   x="86.089996"
   y="174.02"
   width="697.13"
   height="231.16" />
	</defs>
	<clipPath
   id="SVGID_4_">
		<use
   xlink:href="#SVGID_3_"
   style="overflow:visible"
   id="use13" />
	</clipPath>
	<path
   class="st7"
   d="m 365.23,215.4 h 8.3 c 0,1.62 0,3.17 -0.07,4.93 1.62,-2.9 4.93,-6.15 11.55,-6.08 12.08,0.08 14.37,9.32 14.37,15.87 v 22.34 h -8.84 v -20.11 c 0,-5.54 -1.82,-9.78 -8.03,-9.78 -6.27,0.07 -8.43,4.25 -8.43,9.44 v 20.46 h -8.84 V 215.4 Z"
   clip-path="url(#SVGID_4_)"
   id="path13"
   style="fill:#cbd5e1;fill-opacity:1" />
	<polygon
   class="st7"
   points="400.6,215.4 409.77,215.4 418.68,241.32 427.59,215.4 436.77,215.4 423,252.45 414.36,252.45 "
   clip-path="url(#SVGID_4_)"
   id="polygon14"
   style="fill:#cbd5e1;fill-opacity:1" />
	<path
   class="st7"
   d="m 440.75,202.51 h 8.84 v 7.9 h -8.84 z m 0,12.89 h 8.84 v 37.06 h -8.84 z"
   clip-path="url(#SVGID_4_)"
   id="path14"
   style="fill:#cbd5e1;fill-opacity:1" />
	<path
   class="st7"
   d="m 456.89,215.4 h 8.37 v 4.86 c 1.62,-3.31 4.65,-5.94 10.26,-6.02 v 8.91 h -0.41 c -6.21,0 -9.38,2.9 -9.38,9.32 v 19.98 h -8.84 z"
   clip-path="url(#SVGID_4_)"
   id="path15"
   style="fill:#cbd5e1;fill-opacity:1" />
	<path
   class="st7"
   d="m 475.45,233.83 c 0,-9.45 6.95,-19.5 19.85,-19.5 12.89,0 19.84,10.05 19.84,19.57 0,9.58 -6.95,19.64 -19.84,19.64 -12.9,0 -19.85,-10.05 -19.85,-19.64 z m 8.84,0.13 c 0,6.48 4.93,11.27 11,11.27 6.07,0 10.93,-4.79 10.93,-11.34 0,-6.55 -4.85,-11.34 -10.93,-11.34 -6.08,0 -11,4.79 -11,11.34 z"
   clip-path="url(#SVGID_4_)"
   id="path16"
   style="fill:#cbd5e1;fill-opacity:1" />
	<path
   class="st7"
   d="m 520.6,215.4 h 8.3 c 0,1.62 0,3.17 -0.07,4.93 1.62,-2.9 4.93,-6.15 11.55,-6.08 12.08,0.08 14.37,9.32 14.37,15.87 v 22.34 h -8.84 v -20.11 c 0,-5.54 -1.82,-9.78 -8.03,-9.78 -6.27,0.07 -8.43,4.25 -8.43,9.44 v 20.46 h -8.84 V 215.4 Z"
   clip-path="url(#SVGID_4_)"
   id="path17"
   style="fill:#cbd5e1;fill-opacity:1" />
	<path
   class="st7"
   d="m 562.04,215.4 h 8.3 v 4.65 c 0.81,-1.68 4.39,-5.81 10.8,-5.81 3.04,0 6.41,0.89 9.11,3.79 0.81,0.88 1.75,2.43 2.23,3.37 0.68,-1.14 1.48,-2.36 2.7,-3.51 2.29,-2.16 5.53,-3.65 9.44,-3.65 3.1,0 7.02,0.82 9.86,3.71 3.37,3.51 4.05,6.55 4.05,14.18 v 20.31 h -8.84 v -19.98 c 0,-2.36 -0.2,-4.93 -1.48,-6.88 -0.94,-1.83 -2.7,-3.04 -5.81,-3.04 -3.1,0 -5.26,1.34 -6.41,3.37 -1.15,2.03 -1.28,3.99 -1.28,6.22 v 20.31 h -8.84 v -20.31 c 0,-2.16 -0.2,-4.25 -1.14,-6.15 -1.09,-1.95 -2.9,-3.37 -6.08,-3.44 -3.24,0 -5.26,1.55 -6.34,3.44 -1.09,1.96 -1.42,4.25 -1.42,6.42 v 20.05 h -8.84 V 215.4 Z"
   clip-path="url(#SVGID_4_)"
   id="path18"
   style="fill:#cbd5e1;fill-opacity:1" />
	<path
   class="st7"
   d="m 632.31,236.86 c 0.4,5.94 5.66,9.24 10.73,9.18 4.32,0 7.22,-1.95 8.91,-4.99 h 9.11 c -1.75,4.11 -4.39,7.22 -7.49,9.31 -3.1,2.16 -6.75,3.25 -10.59,3.25 -11.4,0 -19.57,-9.25 -19.57,-19.58 0,-10.53 8.23,-19.77 19.44,-19.77 5.53,0 10.39,2.09 13.83,5.66 4.52,4.66 6.22,10.46 5.47,16.94 z m 21.12,-6.75 c -0.33,-3.51 -4.05,-8.43 -10.53,-8.37 -6.55,0 -10.13,4.72 -10.46,8.37 z"
   clip-path="url(#SVGID_4_)"
   id="path19"
   style="fill:#cbd5e1;fill-opacity:1" />
	<path
   class="st7"
   d="m 667.54,215.4 h 8.3 c 0,1.62 0,3.17 -0.07,4.93 1.62,-2.9 4.93,-6.15 11.55,-6.08 12.08,0.08 14.37,9.32 14.37,15.87 v 22.34 h -8.84 v -20.11 c 0,-5.54 -1.82,-9.78 -8.03,-9.78 -6.27,0.07 -8.43,4.25 -8.43,9.44 v 20.46 h -8.84 V 215.4 Z"
   clip-path="url(#SVGID_4_)"
   id="path20"
   style="fill:#cbd5e1;fill-opacity:1" />
	<polygon
   class="st7"
   points="705.27,215.4 711.41,215.4 711.41,202.51 720.25,202.51 720.25,215.4 726.59,215.4 726.59,222.22 720.25,222.22 720.25,252.46 711.41,252.46 711.41,222.22 705.27,222.22 "
   clip-path="url(#SVGID_4_)"
   id="polygon20"
   style="fill:#cbd5e1;fill-opacity:1" />
	<path
   class="st7"
   d="m 766.96,252.46 h -8.84 v -5.33 c -2.36,4.31 -7.29,6.47 -12.49,6.47 -11.88,0 -18.83,-9.24 -18.83,-19.7 0,-11.68 8.43,-19.65 18.83,-19.65 6.75,0 10.87,3.58 12.49,6.55 v -5.4 h 8.84 z M 735.64,234.1 c 0,4.59 3.3,11.27 11.27,11.27 4.93,0 8.17,-2.56 9.85,-5.94 0.89,-1.62 1.28,-3.37 1.42,-5.2 0.07,-1.75 -0.27,-3.58 -1.01,-5.2 -1.55,-3.5 -5,-6.55 -10.33,-6.55 -7.16,0 -11.2,5.81 -11.2,11.55 z"
   clip-path="url(#SVGID_4_)"
   id="path21"
   style="fill:#cbd5e1;fill-opacity:1" />
	<rect
   x="774.38"
   y="202.50999"
   class="st7"
   width="8.8400002"
   height="49.939999"
   clip-path="url(#SVGID_4_)"
   id="rect21"
   style="fill:#cbd5e1;fill-opacity:1" />
	<path
   class="st7"
   d="m 330.95,266.57 h 15.86 c 6.21,0 15.25,0.61 21.19,8.63 3.65,4.6 5.13,10.13 5.13,16.27 0,14.11 -7.42,25.04 -25.58,25.04 h -16.6 z M 341,307.68 h 7.09 c 10.79,0 14.98,-7.08 14.98,-16.07 0,-3.91 -1.02,-8.09 -3.38,-11.2 -2.09,-2.69 -5.46,-4.99 -11.54,-4.99 H 341 Z"
   clip-path="url(#SVGID_4_)"
   id="path22"
   style="fill:#cbd5e1;fill-opacity:1" />
	<path
   class="st7"
   d="m 385.21,300.93 c 0.4,5.94 5.66,9.24 10.73,9.18 4.32,0 7.22,-1.95 8.91,-4.99 h 9.11 c -1.75,4.11 -4.39,7.22 -7.49,9.31 -3.1,2.16 -6.75,3.25 -10.59,3.25 -11.4,0 -19.57,-9.25 -19.57,-19.58 0,-10.53 8.23,-19.77 19.44,-19.77 5.53,0 10.39,2.09 13.83,5.66 4.52,4.66 6.22,10.46 5.47,16.94 z m 21.12,-6.75 c -0.33,-3.51 -4.05,-8.43 -10.53,-8.37 -6.55,0 -10.13,4.72 -10.46,8.37 z"
   clip-path="url(#SVGID_4_)"
   id="path23"
   style="fill:#cbd5e1;fill-opacity:1" />
	<path
   class="st7"
   d="m 420.98,286.28 h -4.59 v -6.82 h 4.59 v -2.09 c 0,-11 8.37,-11.68 14.72,-11.75 v 6.82 c -2.23,0 -5.87,0 -5.87,5.2 v 1.83 h 5.87 v 6.82 h -5.87 v 30.24 h -8.84 v -30.25 z"
   clip-path="url(#SVGID_4_)"
   id="path24"
   style="fill:#cbd5e1;fill-opacity:1" />
	<path
   class="st7"
   d="m 444.4,300.93 c 0.4,5.94 5.66,9.24 10.73,9.18 4.32,0 7.22,-1.95 8.91,-4.99 h 9.11 c -1.75,4.11 -4.39,7.22 -7.49,9.31 -3.1,2.16 -6.75,3.25 -10.59,3.25 -11.4,0 -19.57,-9.25 -19.57,-19.58 0,-10.53 8.23,-19.77 19.44,-19.77 5.53,0 10.39,2.09 13.83,5.66 4.52,4.66 6.22,10.46 5.47,16.94 z m 21.13,-6.75 c -0.33,-3.51 -4.05,-8.43 -10.53,-8.37 -6.55,0 -10.13,4.72 -10.46,8.37 z"
   clip-path="url(#SVGID_4_)"
   id="path25"
   style="fill:#cbd5e1;fill-opacity:1" />
	<path
   class="st7"
   d="m 479.63,279.46 h 8.3 c 0,1.62 0,3.17 -0.07,4.93 1.62,-2.9 4.93,-6.15 11.55,-6.07 12.08,0.07 14.37,9.31 14.37,15.86 v 22.34 h -8.84 v -20.11 c 0,-5.54 -1.82,-9.78 -8.03,-9.78 -6.27,0.07 -8.43,4.25 -8.43,9.44 v 20.46 h -8.84 v -37.07 z"
   clip-path="url(#SVGID_4_)"
   id="path26"
   style="fill:#cbd5e1;fill-opacity:1" />
	<path
   class="st7"
   d="m 537.14,289.45 c -0.07,-1.96 -1.08,-3.98 -4.52,-3.98 -2.97,0 -4.39,1.88 -4.39,3.71 0.07,2.36 2.77,3.65 6.27,4.65 5.94,1.62 12.35,3.37 12.42,11.34 0.13,7.62 -6.27,12.49 -14.04,12.49 -5.73,0 -13.5,-2.97 -14.17,-11.95 h 8.84 c 0.34,3.98 3.78,4.79 5.46,4.79 2.77,0 5.13,-1.82 5.06,-4.31 0,-3.18 -2.76,-4.05 -9.59,-6.42 -4.99,-1.55 -9.04,-4.32 -9.11,-9.65 0,-7.29 6.14,-11.81 13.3,-11.81 5,0 12.42,2.23 13.16,11.14 z"
   clip-path="url(#SVGID_4_)"
   id="path27"
   style="fill:#cbd5e1;fill-opacity:1" />
	<path
   class="st7"
   d="m 558.74,300.93 c 0.4,5.94 5.66,9.24 10.73,9.18 4.32,0 7.22,-1.95 8.91,-4.99 h 9.11 c -1.75,4.11 -4.39,7.22 -7.49,9.31 -3.1,2.16 -6.75,3.25 -10.59,3.25 -11.4,0 -19.57,-9.25 -19.57,-19.58 0,-10.53 8.23,-19.77 19.44,-19.77 5.53,0 10.39,2.09 13.83,5.66 4.52,4.66 6.22,10.46 5.47,16.94 z m 21.12,-6.75 c -0.33,-3.51 -4.05,-8.43 -10.53,-8.37 -6.55,0 -10.13,4.72 -10.46,8.37 z"
   clip-path="url(#SVGID_4_)"
   id="path28"
   style="fill:#cbd5e1;fill-opacity:1" />
	<polygon
   class="st7"
   points="357.47,339.48 340.99,339.48 340.99,351.42 357.06,351.42 357.06,360.27 340.99,360.27 340.99,380.58 330.94,380.58 330.94,330.64 357.47,330.64 "
   clip-path="url(#SVGID_4_)"
   id="polygon28"
   style="fill:#cbd5e1;fill-opacity:1" />
	<path
   class="st7"
   d="m 397.08,380.58 h -8.3 v -4.93 c -1.55,2.9 -4.86,6.15 -11.55,6.08 -12.15,-0.08 -14.44,-9.32 -14.44,-15.8 v -22.41 h 8.84 v 20.18 c 0,5.47 1.82,9.79 8.1,9.72 6.34,0 8.5,-4.18 8.5,-9.44 v -20.46 h 8.84 v 37.06 z"
   clip-path="url(#SVGID_4_)"
   id="path29"
   style="fill:#cbd5e1;fill-opacity:1" />
	<path
   class="st7"
   d="m 404.51,343.53 h 8.3 c 0,1.62 0,3.17 -0.07,4.93 1.62,-2.9 4.93,-6.15 11.55,-6.07 12.08,0.07 14.37,9.31 14.37,15.86 v 22.34 h -8.84 v -20.11 c 0,-5.54 -1.82,-9.78 -8.03,-9.78 -6.27,0.07 -8.43,4.25 -8.43,9.44 v 20.46 h -8.84 v -37.07 z"
   clip-path="url(#SVGID_4_)"
   id="path30"
   style="fill:#cbd5e1;fill-opacity:1" />
	<path
   class="st7"
   d="m 483.89,380.58 h -8.44 v -5.33 c -1.62,2.77 -5.13,6.48 -12.69,6.48 -11.4,0 -18.76,-8.91 -18.76,-19.71 0,-12.01 8.58,-19.64 18.63,-19.64 7.09,0 11.07,3.78 12.42,5.94 v -5.41 -12.28 h 8.84 z m -31.05,-18.56 c 0,6.27 4.52,11.4 11.34,11.4 3.25,0 6.14,-1.28 8.23,-3.37 2.09,-2.09 3.31,-5 3.17,-8.23 0,-3.25 -1.28,-6.01 -3.3,-7.97 -2.03,-2.03 -4.85,-3.24 -8.03,-3.24 -7.22,0 -11.4,5.53 -11.4,11.34 v 0.07 z"
   clip-path="url(#SVGID_4_)"
   id="path31"
   style="fill:#cbd5e1;fill-opacity:1" />
	<path
   class="st8"
   d="m 242.88,319.2 c 14.1,-4.2 29.66,-3.33 47.51,2.67 0.02,-0.05 0.04,-0.1 0.05,-0.14 4.53,-11.97 6.5,-24.5 5.85,-37.25 -0.47,-0.19 -0.94,-0.37 -1.42,-0.55 -9.96,-3.76 -20,-5.75 -29.9,-5.92 -19.94,-0.35 -37.83,6.75 -51.7,20.52 -2.9,2.88 -5.83,5.92 -8.66,8.85 -10.82,11.25 -21.96,22.82 -36.12,30.51 -6.46,3.5 -13.81,5.93 -21.12,7.04 16.72,5.46 35.53,4.76 51.03,-2.22 5.93,-2.67 11.74,-6.3 17.34,-9.81 8.42,-5.28 17.12,-10.72 27.14,-13.7"
   clip-path="url(#SVGID_4_)"
   id="path32"
   style="fill:#cbd5e1;fill-opacity:1" />
	<path
   class="st9"
   d="m 276.6,231.9 c -14.87,-1.48 -27.58,-0.74 -38.84,2.23 -15.08,3.99 -29.09,12.6 -39.45,24.25 -7.73,8.68 -13.72,19.28 -19.5,29.54 -2.43,4.3 -4.94,8.75 -7.59,13.08 -9.72,15.89 -19.67,26.62 -30.85,33.13 6.23,-0.16 13.96,-1.73 22.59,-6.42 12.59,-6.83 23.1,-17.74 33.26,-28.3 2.9,-3.02 5.88,-6.11 8.89,-9.1 16.15,-16.03 36.92,-24.28 60.06,-23.88 9.75,0.17 19.68,1.92 29.57,5.22 -2.79,-14.48 -9.01,-28.14 -18.14,-39.75"
   clip-path="url(#SVGID_4_)"
   id="path33"
   style="fill:#cbd5e1;fill-opacity:1" />
	<path
   class="st10"
   d="m 117.55,256.35 c -8.95,23.66 -7.73,50.23 3.32,73.02 2.36,-0.49 4.61,-1.12 6.69,-1.9 12.29,-4.6 23.03,-14.93 33.78,-32.52 2.54,-4.16 5.01,-8.52 7.39,-12.73 6.08,-10.78 12.38,-21.93 20.93,-31.54 11.86,-13.33 27.89,-23.18 45.15,-27.74 9.24,-2.45 19.16,-3.55 30.14,-3.34 -8.32,-7.33 -17.81,-13.03 -28.28,-16.99 -47.67,-18.02 -101.1,6.09 -119.12,53.74"
   clip-path="url(#SVGID_4_)"
   id="path34"
   style="fill:#cbd5e1;fill-opacity:1" />
	<path
   class="st7"
   d="m 221.89,342.7 c -5.95,3.72 -12.1,7.57 -18.74,10.57 -19.41,8.74 -42.21,9.34 -62.55,1.65 -0.01,0 -0.01,0 -0.01,0 -0.78,-0.29 -1.56,-0.6 -2.33,-0.92 9.3,9.41 20.56,16.75 33.06,21.48 43.84,16.57 92.48,-1.9 114.26,-43 -15.05,-4.87 -27.96,-5.59 -39.4,-2.18 -8.51,2.52 -16.17,7.32 -24.29,12.4"
   clip-path="url(#SVGID_4_)"
   id="path35"
   style="fill:#cbd5e1;fill-opacity:1" />
	<path
   class="st10"
   d="m 368.75,524.45 c 0,28.34 -22.97,51.3 -51.3,51.3 -28.33,0 -51.29,-22.97 -51.29,-51.3 0,-28.34 22.97,-51.3 51.29,-51.3 28.33,0 51.3,22.96 51.3,51.3"
   clip-path="url(#SVGID_4_)"
   id="path36"
   style="fill:#cbd5e1;fill-opacity:1" />
	<path
   class="st9"
   d="m 453.84,524.53 c 0,28.34 -22.97,51.3 -51.3,51.3 -28.33,0 -51.29,-22.97 -51.29,-51.3 0,-28.34 22.97,-51.3 51.29,-51.3 28.33,-0.01 51.3,22.96 51.3,51.3"
   clip-path="url(#SVGID_4_)"
   id="path37"
   style="fill:#cbd5e1;fill-opacity:1" />
	<path
   class="st8"
   d="m 538.94,524.53 c 0,28.34 -22.97,51.3 -51.3,51.3 -28.33,0 -51.29,-22.97 -51.29,-51.3 0,-28.34 22.97,-51.3 51.29,-51.3 28.33,-0.01 51.3,22.96 51.3,51.3"
   clip-path="url(#SVGID_4_)"
   id="path38"
   style="fill:#cbd5e1;fill-opacity:1" />
	<path
   class="st7"
   d="m 624.03,524.53 c 0,28.34 -22.97,51.3 -51.3,51.3 -28.33,0 -51.29,-22.97 -51.29,-51.3 0,-28.34 22.97,-51.3 51.29,-51.3 28.33,-0.01 51.3,22.96 51.3,51.3"
   clip-path="url(#SVGID_4_)"
   id="path39"
   style="fill:#cbd5e1;fill-opacity:1" />
</g>
<g
   id="g64"
   style="fill:#cbd5e1;fill-opacity:1"
   transform="translate(-111.61345,-196.63324)">
	<defs
   id="defs39">
		<rect
   id="SVGID_5_"
   x="86.089996"
   y="174.02"
   width="697.13"
   height="231.16" />
	</defs>
	<clipPath
   id="SVGID_6_">
		<use
   xlink:href="#SVGID_5_"
   style="overflow:visible"
   id="use39" />
	</clipPath>
	<g
   style="fill:#cbd5e1;fill-opacity:1"
   clip-path="url(#SVGID_6_)"
   id="g40">
		<text
   transform="translate(294.75,610.7734)"
   style="font-size:11.2784px;font-family:Degular-Regular;fill:#cbd5e1;fill-opacity:1"
   id="text39">#33CCFF</text>
	</g>
	<g
   style="fill:#cbd5e1;fill-opacity:1"
   clip-path="url(#SVGID_6_)"
   id="g44">
		<text
   transform="translate(280.2422,624.3047)"
   id="text44"
   style="fill:#cbd5e1;fill-opacity:1"><tspan
     x="0"
     y="0"
     style="font-size:11.2784px;font-family:Degular-Regular;fill:#cbd5e1;fill-opacity:1"
     id="tspan40">R</tspan><tspan
     x="6.0700002"
     y="0"
     style="font-size:11.2784px;font-family:Degular-Regular;fill:#cbd5e1;fill-opacity:1"
     id="tspan41">5</tspan><tspan
     x="11.79"
     y="0"
     style="font-size:11.2784px;font-family:Degular-Regular;fill:#cbd5e1;fill-opacity:1"
     id="tspan42">1 G204 B</tspan><tspan
     x="53.110001"
     y="0"
     style="font-size:11.2784px;font-family:Degular-Regular;fill:#cbd5e1;fill-opacity:1"
     id="tspan43">2</tspan><tspan
     x="58.84"
     y="0"
     style="font-size:11.2784px;font-family:Degular-Regular;fill:#cbd5e1;fill-opacity:1"
     id="tspan44">55</tspan></text>
	</g>
	<g
   style="fill:#cbd5e1;fill-opacity:1"
   clip-path="url(#SVGID_6_)"
   id="g46">
		<text
   transform="translate(304.4766,637.8516)"
   id="text46"
   style="fill:#cbd5e1;fill-opacity:1"><tspan
     x="0"
     y="0"
     style="font-size:11.2784px;font-family:Degular-Regular;fill:#cbd5e1;fill-opacity:1"
     id="tspan45">2</tspan><tspan
     x="5.7199998"
     y="0"
     style="font-size:11.2784px;font-family:Degular-Regular;fill:#cbd5e1;fill-opacity:1"
     id="tspan46">98C</tspan></text>
	</g>
	<g
   style="fill:#cbd5e1;fill-opacity:1"
   clip-path="url(#SVGID_6_)"
   id="g49">
		<text
   transform="translate(381.0547,610.8516)"
   id="text49"
   style="fill:#cbd5e1;fill-opacity:1"><tspan
     x="0"
     y="0"
     style="font-size:11.2784px;font-family:Degular-Regular;fill:#cbd5e1;fill-opacity:1"
     id="tspan47">#A1E2</tspan><tspan
     x="29.629999"
     y="0"
     style="font-size:11.2784px;font-family:Degular-Regular;fill:#cbd5e1;fill-opacity:1"
     id="tspan48">1</tspan><tspan
     x="35.18"
     y="0"
     style="font-size:11.2784px;font-family:Degular-Regular;fill:#cbd5e1;fill-opacity:1"
     id="tspan49">4</tspan></text>
	</g>
	<g
   style="fill:#cbd5e1;fill-opacity:1"
   clip-path="url(#SVGID_6_)"
   id="g52">
		<text
   transform="translate(366.1172,624.3906)"
   id="text52"
   style="fill:#cbd5e1;fill-opacity:1"><tspan
     x="0"
     y="0"
     style="font-size:11.2784px;font-family:Degular-Regular;fill:#cbd5e1;fill-opacity:1"
     id="tspan50">R</tspan><tspan
     x="6.0700002"
     y="0"
     style="font-size:11.2784px;font-family:Degular-Regular;fill:#cbd5e1;fill-opacity:1"
     id="tspan51">1</tspan><tspan
     x="11.73"
     y="0"
     style="font-size:11.2784px;font-family:Degular-Regular;fill:#cbd5e1;fill-opacity:1"
     id="tspan52">61 G226 B20</tspan></text>
	</g>
	<g
   style="fill:#cbd5e1;fill-opacity:1"
   clip-path="url(#SVGID_6_)"
   id="g53">
		<text
   transform="translate(389.7969,637.9219)"
   style="font-size:11.2784px;font-family:Degular-Regular;fill:#cbd5e1;fill-opacity:1"
   id="text53">375C</text>
	</g>
	<g
   style="fill:#cbd5e1;fill-opacity:1"
   clip-path="url(#SVGID_6_)"
   id="g54">
		<text
   transform="translate(464.7422,610.8516)"
   style="font-size:11.2784px;font-family:Degular-Regular;fill:#cbd5e1;fill-opacity:1"
   id="text54">#009933</text>
	</g>
	<g
   style="fill:#cbd5e1;fill-opacity:1"
   clip-path="url(#SVGID_6_)"
   id="g56">
		<text
   transform="translate(457.4531,624.3906)"
   id="text56"
   style="fill:#cbd5e1;fill-opacity:1"><tspan
     x="0"
     y="0"
     style="font-size:11.2784px;font-family:Degular-Regular;fill:#cbd5e1;fill-opacity:1"
     id="tspan54">R0 G153 B</tspan><tspan
     x="47.389999"
     y="0"
     style="font-size:11.2784px;font-family:Degular-Regular;fill:#cbd5e1;fill-opacity:1"
     id="tspan55">5</tspan><tspan
     x="53.119999"
     y="0"
     style="font-size:11.2784px;font-family:Degular-Regular;fill:#cbd5e1;fill-opacity:1"
     id="tspan56">1</tspan></text>
	</g>
	<g
   style="fill:#cbd5e1;fill-opacity:1"
   clip-path="url(#SVGID_6_)"
   id="g57">
		<text
   transform="translate(474.5547,637.9219)"
   style="font-size:11.2784px;font-family:Degular-Regular;fill:#cbd5e1;fill-opacity:1"
   id="text57">355C</text>
	</g>
	<g
   style="fill:#cbd5e1;fill-opacity:1"
   clip-path="url(#SVGID_6_)"
   id="g58">
		<text
   transform="translate(549.2031,610.8516)"
   style="font-size:11.2784px;font-family:Degular-Regular;fill:#cbd5e1;fill-opacity:1"
   id="text58">#0033CC</text>
	</g>
	<g
   style="fill:#cbd5e1;fill-opacity:1"
   clip-path="url(#SVGID_6_)"
   id="g60">
		<text
   transform="translate(541.875,624.3906)"
   id="text60"
   style="fill:#cbd5e1;fill-opacity:1"><tspan
     x="0"
     y="0"
     style="font-size:11.2784px;font-family:Degular-Regular;fill:#cbd5e1;fill-opacity:1"
     id="tspan58">R0 G</tspan><tspan
     x="21.530001"
     y="0"
     style="font-size:11.2784px;font-family:Degular-Regular;fill:#cbd5e1;fill-opacity:1"
     id="tspan59">5</tspan><tspan
     x="27.26"
     y="0"
     style="font-size:11.2784px;font-family:Degular-Regular;fill:#cbd5e1;fill-opacity:1"
     id="tspan60">1 B204</tspan></text>
	</g>
	<g
   style="fill:#cbd5e1;fill-opacity:1"
   clip-path="url(#SVGID_6_)"
   id="g63">
		<text
   transform="translate(556.8906,637.9219)"
   id="text63"
   style="fill:#cbd5e1;fill-opacity:1"><tspan
     x="0"
     y="0"
     style="font-size:11.2784px;font-family:Degular-Regular;fill:#cbd5e1;fill-opacity:1"
     id="tspan61">27</tspan><tspan
     x="11.57"
     y="0"
     style="font-size:11.2784px;font-family:Degular-Regular;fill:#cbd5e1;fill-opacity:1"
     id="tspan62">2</tspan><tspan
     x="17.290001"
     y="0"
     style="font-size:11.2784px;font-family:Degular-Regular;fill:#cbd5e1;fill-opacity:1"
     id="tspan63">8C</tspan></text>
	</g>
</g>
</svg>
