<?xml version="1.0" encoding="UTF-8" standalone="no"?>
<svg
   width="1200pt"
   height="1200pt"
   version="1.1"
   viewBox="0 0 1200 1200"
   id="svg1"
   sodipodi:docname="logo2.svg"
   inkscape:version="1.3.2 (091e20e, 2023-11-25, custom)"
   xmlns:inkscape="http://www.inkscape.org/namespaces/inkscape"
   xmlns:sodipodi="http://sodipodi.sourceforge.net/DTD/sodipodi-0.dtd"
   xmlns:xlink="http://www.w3.org/1999/xlink"
   xmlns="http://www.w3.org/2000/svg"
   xmlns:svg="http://www.w3.org/2000/svg">
  <defs
     id="defs1">
    <linearGradient
       id="linearGradient1"
       inkscape:collect="always">
      <stop
         style="stop-color:#ffffff;stop-opacity:0.79126215;"
         offset="0"
         id="stop1" />
      <stop
         style="stop-color:#a605bf;stop-opacity:0.79126215;"
         offset="1"
         id="stop2" />
    </linearGradient>
    <linearGradient
       inkscape:collect="always"
       xlink:href="#linearGradient1"
       id="linearGradient2"
       x1="21.694914"
       y1="1179.6611"
       x2="1160.678"
       y2="17.627117"
       gradientUnits="userSpaceOnUse" />
    <linearGradient
       id="b"
       x1="29.912409"
       x2="7.3913001"
       y1="12.75717"
       y2="29.69578"
       gradientUnits="userSpaceOnUse"
       gradientTransform="matrix(0.75,0,0,0.75,565.875,349.125)">
      <stop
         offset="0%"
         stop-color="#F1F5F9"
         stop-opacity="0"
         id="stop1-8" />
      <stop
         offset="100%"
         stop-color="#F1F5F9"
         id="stop2-2" />
    </linearGradient>
    <linearGradient
       id="b-8"
       x1="29.912409"
       x2="7.3913001"
       y1="12.75717"
       y2="29.69578"
       gradientUnits="userSpaceOnUse"
       gradientTransform="matrix(52.930013,0,0,55.548362,-357.21052,-424.94191)">
      <stop
         offset="0%"
         stop-color="#F1F5F9"
         stop-opacity="0"
         id="stop1-5" />
      <stop
         offset="100%"
         stop-color="#F1F5F9"
         id="stop2-5" />
    </linearGradient>
  </defs>
  <sodipodi:namedview
     id="namedview1"
     pagecolor="#ffffff"
     bordercolor="#000000"
     borderopacity="0.25"
     inkscape:showpageshadow="2"
     inkscape:pageopacity="0.0"
     inkscape:pagecheckerboard="0"
     inkscape:deskcolor="#d1d1d1"
     inkscape:document-units="pt"
     inkscape:zoom="0.2765625"
     inkscape:cx="549.60452"
     inkscape:cy="735.81921"
     inkscape:window-width="1920"
     inkscape:window-height="1141"
     inkscape:window-x="-9"
     inkscape:window-y="21"
     inkscape:window-maximized="1"
     inkscape:current-layer="svg1" />
  <path
     id="path1"
     d="M 607.12207 18.632813 C 479.2922 16.972814 349.79188 57.47082 241.29199 143.30273 C 238.128 146.63873 233.29196 149.80174 228.45996 152.97363 L 228.45996 154.64209 L 220.29199 159.47461 L 124.7915 185.30566 C 118.29151 188.63766 105.29201 196.6382 118.29199 209.63818 L 147.12012 236.96631 C 64.6222 338.96621 20.958526 463.63595 19.290527 589.96582 C 16.130531 719.46569 56.460537 848.96593 143.96045 957.46582 C 147.12845 963.79781 150.46042 967.13431 153.62842 971.96631 L 161.79639 980.13428 L 186.12744 1070.8022 C 189.45944 1082.1342 202.29197 1085.4697 210.45996 1077.3018 L 234.79248 1051.4707 C 315.7924 1116.3026 409.63001 1156.8027 508.46191 1172.9707 C 610.46181 1189.1387 715.63001 1177.8022 814.46191 1138.9702 C 822.62991 1135.6382 825.79788 1127.6382 822.62988 1119.4702 C 819.29789 1112.9702 811.29833 1109.8027 804.79834 1112.9707 C 710.96843 1150.3027 608.96527 1159.9693 511.79736 1143.8013 C 419.46746 1129.3033 332.13619 1091.9721 255.96826 1030.4722 L 281.79932 1004.6396 L 281.7876 1004.6382 C 289.95559 996.47019 288.28807 983.63816 275.28809 980.31006 L 181.45605 959.31006 L 176.62354 954.47754 C 171.79154 947.97755 168.4595 944.64651 165.2915 941.47852 C 84.289585 836.30862 45.45456 713.30847 47.122559 591.80859 C 48.782557 471.96871 89.284714 353.8056 166.95264 256.6377 L 192.78369 280.97021 C 199.28368 288.97021 213.78415 287.47069 215.45215 274.4707 L 236.45215 183.80273 C 239.62015 182.13474 242.95212 178.80276 246.12012 175.63477 C 249.45211 172.46677 254.28861 169.13479 259.12061 165.9668 C 360.9505 84.964878 484.12073 46.128388 607.12061 47.796387 C 725.46049 49.466385 843.62437 89.966873 940.28027 165.9668 L 914.44775 191.79785 C 908.11576 199.96184 909.61574 212.96237 922.61572 216.13037 L 1014.9478 235.63037 L 1019.7803 242.12988 C 1024.6123 246.96588 1029.6113 253.46683 1032.7793 258.29883 C 1097.6112 340.96875 1134.7798 436.46836 1147.7798 531.96826 C 1159.1158 632.46816 1144.6167 735.96692 1102.4487 828.29883 C 1099.2807 834.79882 1102.4482 842.96237 1108.9482 846.13037 C 1117.1162 849.29837 1125.2802 846.12939 1128.4482 839.62939 C 1172.2802 742.46949 1188.4477 633.9697 1175.4478 528.7998 C 1164.1178 426.79991 1123.6176 328.1298 1055.6177 240.62988 C 1050.7857 235.79389 1045.9506 229.2944 1041.1187 224.4624 L 1034.6177 216.29443 L 1010.2866 123.9624 C 1010.2866 119.13041 1000.4541 107.79789 985.9541 119.12988 L 960.12158 144.9624 C 858.12168 63.964483 733.45194 20.300811 607.12207 18.632813 z M 599.14014 154.6377 C 590.97214 154.6377 584.47168 161.13819 584.63965 169.13818 C 584.63965 177.13818 590.97214 183.63867 599.14014 183.63867 C 605.64013 183.63867 612.14063 177.30618 612.14063 169.13818 C 612.14063 161.13819 605.64013 154.6377 599.14014 154.6377 z M 989.29541 156.30615 L 1002.1274 204.80566 L 953.62793 193.47363 L 989.29541 156.30615 z M 557.17383 159.38818 C 555.4837 159.04181 553.76562 159.05322 552.14063 159.47021 C 544.14063 159.47021 539.3042 167.6377 539.14014 175.6377 C 540.80814 182.13769 548.80762 188.63772 555.30762 186.96973 C 563.47561 185.30173 568.30811 178.97024 568.30811 170.80225 C 567.05711 164.67925 562.2442 160.42731 557.17383 159.38818 z M 646.13965 159.47021 C 637.97166 157.97022 629.8042 162.80225 629.97217 170.80225 C 628.30417 178.80224 633.13621 185.30173 641.3042 186.96973 C 649.30419 188.63772 655.80368 182.13769 657.47168 175.6377 C 659.13968 167.6377 652.63964 159.47021 646.13965 159.47021 z M 685.68457 168.9624 C 680.26208 169.53315 676.01223 172.84422 673.63623 178.97021 C 671.97223 187.13421 675.13621 195.13376 683.3042 196.80176 C 689.80419 199.96975 697.80424 195.13814 701.14014 188.80225 C 702.80414 180.63425 699.64016 172.47024 691.47217 169.30225 C 689.43017 168.88625 687.49207 168.77215 685.68457 168.9624 z M 511.30225 169.19531 C 509.37762 168.87494 507.34571 168.88525 505.30371 169.30225 C 498.80372 172.47024 493.97165 180.6377 497.13574 188.63379 C 498.79974 195.13378 506.79929 199.96975 514.96729 196.80176 C 521.46728 195.13776 526.30472 187.13821 523.13672 178.97021 C 521.88872 174.09522 517.07612 170.15644 511.30225 169.19531 z M 729.81885 186.43945 C 724.20135 185.59495 718.13962 188.59571 715.64063 193.4707 C 712.47263 201.63869 715.64014 209.80271 722.14014 212.9707 C 728.64013 216.1387 738.47214 214.63772 741.64014 206.46973 C 744.80813 199.96973 741.64062 191.80618 735.14063 188.63818 C 733.51563 187.42918 731.69135 186.72095 729.81885 186.43945 z M 467.49609 186.44092 C 465.54541 186.72223 463.51465 187.43018 461.47266 188.63818 C 454.97266 191.97018 451.80368 199.96973 454.97168 206.46973 C 459.97167 214.63772 467.97169 216.1387 474.47168 212.9707 C 482.63967 209.63871 484.14065 201.63869 480.97266 193.4707 C 478.47366 188.59571 473.34815 185.59698 467.49609 186.44092 z M 205.63623 193.47363 L 194.3042 243.6416 L 157.13672 206.47412 L 205.63623 193.47363 z M 388.80176 208.13965 C 377.46977 208.13965 369.30128 221.14012 375.80127 230.80811 C 398.46925 263.13807 414.63377 350.64015 430.80176 394.30811 C 453.47174 455.80804 513.4727 475.14061 561.97266 460.64063 C 571.64065 499.47259 576.47168 538.47169 576.47168 575.63965 C 578.13968 593.47163 602.47165 595.13963 605.63965 575.63965 L 605.63525 575.63965 C 605.63525 567.47166 605.63573 557.80423 604.12793 548.14014 C 615.46392 527.14016 626.79542 507.64064 639.79541 491.47266 C 667.29738 522.30463 714.29786 536.80365 757.96582 504.47168 C 772.46581 496.30369 787.13036 483.47264 803.29834 470.47266 C 827.63432 449.30468 851.96535 428.30367 866.46533 423.47168 C 880.96532 418.63968 877.80178 402.47262 869.63379 397.64063 C 817.79584 368.47265 777.29583 355.47164 744.96387 350.63965 C 691.46392 345.63965 660.63231 363.47218 646.13232 376.47217 C 639.80033 381.30816 634.79983 386.13965 631.63184 392.63965 C 634.79983 378.13966 636.46383 360.30366 631.63184 342.47168 C 626.79984 319.8077 607.46378 279.47162 549.13184 248.63965 C 513.47187 229.13967 461.63368 212.97164 388.80176 208.13965 z M 764.70264 210.30469 C 761.05664 210.88819 757.80662 212.8877 756.14063 216.1377 C 751.14063 222.63769 752.80762 230.8057 759.30762 235.6377 C 764.30761 240.63769 773.97562 238.9707 778.80762 232.4707 C 783.80761 225.97071 782.14062 217.8027 775.64063 212.9707 C 772.39063 210.55471 768.34863 209.72119 764.70264 210.30469 z M 411.46582 238.80615 C 466.46777 245.30615 506.96777 258.30565 536.13574 274.47363 C 583.1357 298.80561 599.30472 331.14214 604.13672 348.97412 C 612.13671 381.30609 599.30418 405.63817 579.8042 421.80615 C 565.30421 384.63619 544.30365 347.30468 513.47168 310.13672 C 508.47168 303.63673 500.47167 303.63627 493.97168 308.46826 C 487.47169 313.46826 487.47269 321.46827 492.30469 327.96826 C 521.47266 363.47023 540.8047 397.47022 553.80469 433.13818 L 553.80176 433.13965 C 518.13779 442.80364 474.47032 429.80403 456.79834 384.47607 C 438.96636 337.63812 430.9658 285.80611 411.46582 238.80615 z M 801.45117 238.88672 C 797.80568 238.88672 794.13965 240.47073 791.63965 243.63867 C 785.13965 248.63867 785.13965 258.30668 791.63965 263.13867 C 796.63964 269.63867 806.30765 269.63867 811.13965 263.13867 C 815.97164 258.13868 817.63964 248.47067 811.13965 243.63867 C 808.72165 240.47073 805.09667 238.88672 801.45117 238.88672 z M 364.32861 273.40576 C 360.68262 274.01026 357.0576 276.05176 354.6416 279.30176 C 349.80571 285.80175 351.47416 293.96976 357.81006 298.80176 C 364.31005 303.80175 374.14206 302.13329 377.31006 295.6333 C 382.31005 289.13331 380.6416 280.9653 374.1416 276.1333 C 371.6416 273.6333 367.97461 272.80126 364.32861 273.40576 z M 832.84717 273.46875 C 829.38867 272.88525 825.72168 273.7173 822.47168 276.1333 C 816.13569 281.1333 814.47269 289.13331 819.30469 295.6333 C 824.30468 301.96929 832.30469 303.63375 838.80469 298.80176 C 845.14068 293.80176 846.80367 285.80175 841.97168 279.30176 C 839.55568 276.05176 836.30566 274.05225 832.84717 273.46875 z M 343.75928 312.06738 C 337.86878 311.92657 332.68215 314.92676 330.30615 319.80176 C 327.14206 326.30175 330.30567 334.30176 336.80566 339.30176 C 343.30566 342.46975 351.47367 339.30224 356.30566 332.80225 C 359.47366 326.30225 356.30615 316.47024 349.80615 313.30225 C 347.76415 312.51025 345.72278 312.11432 343.75928 312.06738 z M 852.82764 312.06885 C 850.87695 312.1156 848.8462 312.51122 846.8042 313.30225 C 840.30421 316.63424 837.13968 324.63425 841.97168 332.80225 C 845.30368 339.30224 853.30469 342.46975 859.80469 339.30176 C 867.97268 334.30176 869.4722 326.30175 866.3042 319.80176 C 863.8052 314.92676 858.67969 311.92858 852.82764 312.06885 z M 324.47754 353.4624 C 318.70517 354.03315 313.8926 357.34422 312.6416 363.47021 C 309.3056 369.97021 314.14258 378.13766 320.64258 381.30176 C 328.81057 382.96576 336.97458 379.80178 340.14258 371.63379 C 341.80658 365.1338 336.9746 356.97024 330.47461 353.80225 C 328.43361 353.38625 326.40166 353.27215 324.47754 353.4624 z M 872.23242 353.48584 C 870.31617 353.28247 868.30762 353.38622 866.30859 353.80225 C 859.8086 357.13424 854.97263 365.1338 858.14063 371.63379 C 859.80462 379.63378 867.80418 382.96976 875.97217 381.30176 C 882.47216 377.96976 887.30813 369.97021 884.14014 363.47021 C 882.88914 357.47022 877.98118 354.09595 872.23242 353.48584 z M 726.49512 378.95215 C 731.21067 379.04024 736.20068 379.36622 741.47168 379.97021 C 765.80766 381.63421 796.47168 391.30227 832.13965 410.80225 C 817.47166 420.47024 801.30812 434.96974 785.14014 447.96973 C 768.97215 460.96971 754.47167 473.80222 741.47168 481.97021 C 712.30371 502.97019 678.30366 493.30616 660.47168 470.63818 C 673.47167 460.80619 687.97222 452.80566 705.8042 446.30566 C 712.30419 442.97367 717.14016 434.97366 713.97217 426.80566 C 710.64017 420.30567 702.64062 415.4697 696.14063 418.6377 C 678.47264 424.96969 662.13963 434.80222 647.63965 444.47021 C 644.47165 429.80223 649.30422 412.13774 665.3042 397.80176 C 673.91069 389.34577 693.48627 378.33549 726.49512 378.95215 z M 311.80664 397.38867 C 306.52533 398.42686 302.55764 402.67528 301.30664 408.80127 C 299.64264 416.96926 306.14258 423.47022 312.63867 424.97021 C 320.63866 426.63821 328.80615 421.80618 328.80615 413.63818 C 330.47415 405.63819 325.64211 399.1387 317.47412 397.4707 C 315.47412 397.0537 313.56708 397.04261 311.80664 397.38867 z M 620.3042 420.1377 C 616.9722 434.63768 618.64066 450.97023 623.47266 465.47021 C 615.30466 475.13821 605.64009 484.97065 599.3042 496.30664 C 596.1402 481.80666 592.80416 465.47411 587.97217 450.97412 L 587.97217 449.30566 C 600.80416 441.13767 612.13621 431.46968 620.3042 420.1377 z M 312.47461 442.80176 C 304.47462 442.80176 297.97412 447.63425 297.97412 455.80225 C 297.97412 463.80224 304.47462 470.30127 312.47461 470.30127 C 318.9746 470.30127 325.47363 463.97024 325.47363 455.80225 C 325.47363 447.63425 318.9746 442.80176 312.47461 442.80176 z M 885.8042 442.80176 C 877.80421 441.30176 871.30371 447.63425 871.30371 455.80225 C 871.30371 463.80224 877.63621 470.30127 885.8042 470.30127 C 893.80419 470.30127 900.30469 463.97024 900.30469 455.80225 C 898.64069 447.63815 893.80419 441.13766 885.8042 442.80176 z M 312.63867 486.63428 C 306.13868 488.30228 299.63864 496.30176 301.30664 502.80176 C 302.80664 510.80175 309.30613 515.63819 317.47412 515.80225 C 325.63811 514.13425 330.47415 506.13329 328.80615 499.6333 C 328.80615 491.46531 320.80666 486.63428 312.63867 486.63428 z M 884.14014 486.63428 C 876.14014 486.63428 869.64065 491.46531 867.97266 499.6333 C 866.30466 506.13329 871.1367 514.13425 879.30469 515.80225 C 887.30468 515.80225 893.80417 510.96975 895.47217 502.80176 C 896.97217 496.30176 892.14013 488.13818 884.14014 486.63428 z M 641.87842 521.39648 C 628.49279 519.97576 619.15917 540.64744 633.30615 547.79443 C 655.97413 560.79442 668.97363 583.46246 668.97363 609.29443 C 668.97363 648.13039 638.13763 678.9624 599.30566 678.9624 C 560.4697 678.9624 528.1377 648.12639 528.1377 609.29443 C 528.1377 588.29445 537.80669 567.29393 555.63867 554.29395 C 570.13866 542.95796 552.30565 520.2935 537.80566 531.62549 C 519.96968 546.12547 506.97018 565.626 502.13818 586.62598 C 492.47019 576.95799 481.13768 570.45797 468.1377 565.62598 C 451.96971 562.46198 432.63817 564.12595 419.63818 573.79395 C 405.1382 585.12993 398.63871 602.96194 403.4707 623.96191 C 408.3027 646.62989 413.13773 669.29345 417.96973 691.96143 C 372.63777 679.12544 328.97024 709.79399 349.97021 756.79395 L 354.80127 766.46191 C 312.63731 764.79792 280.30224 805.29743 309.47021 844.12939 C 338.63819 881.29936 366.1387 918.63233 393.63867 955.80029 C 399.97067 965.63228 408.13774 971.96336 419.46973 980.13135 C 459.96969 1009.2993 582.97027 1069.1323 636.47021 1088.6323 C 652.6342 1093.6323 676.80178 1098.4683 696.30176 1096.8003 C 770.63168 1104.8003 851.63142 1085.4634 926.13135 1101.6313 C 926.13135 1119.4673 937.46434 1135.6318 953.63232 1143.7998 L 1037.7993 1177.8003 L 1037.8037 1177.7974 C 1062.1397 1187.6334 1089.6397 1176.298 1097.9795 1151.458 L 1177.3125 957.12744 C 1186.9805 932.96347 1175.648 906.96389 1152.98 897.2959 L 1068.8115 863.29541 C 1055.8115 858.46341 1041.3115 858.46387 1028.3115 864.96387 C 961.97359 766.29397 888.97358 737.12545 863.1416 725.79346 C 859.8096 724.12946 858.31009 724.1304 856.64209 720.9624 C 832.30611 688.62643 806.30658 656.12542 780.47461 623.79346 C 759.47463 594.79349 722.13813 583.46242 696.30615 597.9624 C 693.13816 567.13043 675.30661 539.6299 647.80664 523.46191 C 645.78564 522.25342 643.79065 521.59945 641.87842 521.39648 z M 326.83447 530.83154 C 324.88379 530.72211 322.85157 531.01366 320.80957 531.80566 C 314.30958 533.46966 309.4736 541.47068 312.6416 549.63867 C 314.1416 556.13867 322.30571 560.97074 330.6416 557.80664 C 338.64159 556.14264 341.97757 548.14162 340.30957 539.97363 C 337.81057 535.09864 332.68653 531.15986 326.83447 530.83154 z M 869.97656 530.83301 C 864.20419 531.16188 859.39162 535.09864 858.14063 539.97363 C 854.97663 548.13762 859.8086 556.13864 866.30859 557.80664 C 874.47259 560.97064 882.47214 556.13867 884.14014 549.63867 C 887.30413 541.63868 882.47216 533.46976 875.97217 531.80566 C 873.93117 531.01466 871.90069 530.72338 869.97656 530.83301 z M 341.8916 572.50049 C 340.14942 572.67774 338.43066 573.17773 336.80566 573.96973 C 330.30567 577.30172 327.13816 585.30173 330.30615 593.46973 C 333.64215 599.80172 341.64206 603.13814 349.80615 598.30225 C 356.30615 594.97025 359.47366 586.9707 356.30566 580.4707 C 352.55567 574.34471 347.11816 571.96874 341.8916 572.50049 z M 854.72168 572.50049 C 849.53487 571.96874 844.34768 574.34471 841.97168 580.4707 C 837.13568 586.9707 840.30421 595.13425 846.8042 598.30225 C 854.97219 603.13824 863.1362 599.96972 866.3042 593.46973 C 869.4722 585.30173 867.80468 577.13772 859.80469 573.96973 C 858.17969 573.17773 856.45062 572.67774 854.72168 572.50049 z M 455.10498 592.41504 C 457.2846 592.57404 459.4204 592.8872 461.4624 593.3042 C 477.63039 598.30419 495.4614 615.97272 505.12939 646.80469 L 539.12988 794.13428 C 539.12988 797.47027 542.2944 800.63425 543.9624 802.30225 C 568.29838 824.96622 611.96191 857.3023 641.12988 875.13428 C 657.29787 883.30227 670.29741 884.80179 688.12939 881.63379 L 778.79736 857.30127 C 788.63335 854.13327 791.79733 842.80227 786.96533 834.63428 C 769.13335 807.1343 754.63426 784.47022 741.63428 761.80225 C 730.29829 742.30227 704.46581 700.30269 697.96582 682.4707 C 694.79782 667.97072 694.79782 654.96968 697.96582 643.6377 C 707.63381 607.96973 741.63384 619.30273 759.46582 641.9707 C 783.7978 674.30667 809.63433 706.80622 833.96631 739.13818 C 837.13431 743.97418 841.9658 745.63816 850.13379 748.80615 C 874.47376 760.14614 943.97226 790.97666 1008.8042 886.47656 L 932.63672 1074.3062 L 932.63818 1074.3076 C 853.29826 1057.9756 773.96529 1077.4766 696.29736 1067.4727 C 654.29741 1062.6407 636.46235 1041.6401 612.13037 1012.4722 C 570.13041 957.47222 518.29736 903.97452 482.62939 844.14258 C 477.7974 834.47459 474.46536 827.97359 471.29736 816.6416 C 463.29737 784.13963 456.79736 748.63964 450.29736 712.97168 C 443.79737 678.97171 438.96536 646.64063 430.79736 617.47266 C 429.12936 607.80467 430.79789 601.30465 435.62988 596.47266 C 441.62988 592.84566 448.56611 591.93804 455.10498 592.41504 z M 828.4292 610.07373 C 824.9707 610.67823 821.72069 612.71973 819.30469 615.96973 C 814.30469 622.46972 815.97169 632.30173 822.47168 635.46973 C 828.97167 640.30172 837.13968 638.63326 841.97168 633.80127 C 846.80367 627.46928 845.14058 617.63716 838.80469 612.80127 C 835.55469 610.30127 831.8877 609.46923 828.4292 610.07373 z M 368.74805 610.19824 C 365.10205 609.59424 361.06006 610.38527 357.81006 612.80127 C 351.47406 617.63326 349.80961 627.30128 354.6416 633.80127 C 359.4736 638.80126 369.30571 640.30172 374.1416 635.46973 C 380.4776 632.13773 382.14205 622.46972 377.31006 615.96973 C 375.64406 612.80173 372.39404 610.80224 368.74805 610.19824 z M 668.46826 678.98145 C 668.46826 682.14544 670.13672 687.14548 670.13672 690.31348 C 678.30471 714.64545 702.63624 751.81402 717.13623 776.146 C 728.47222 793.97798 739.80372 813.47756 752.80371 834.47754 L 681.63574 853.97754 C 671.97175 855.64154 663.97268 855.64254 655.80469 850.81055 C 636.47271 841.14656 584.63569 798.97801 566.80371 784.47803 L 544.13672 692.146 C 560.3007 701.81019 578.13631 708.30957 598.80029 708.14941 C 624.80027 708.14941 650.63628 696.81343 668.46826 678.98145 z M 394.82959 718.7959 C 404.24173 717.88847 415.1719 720.08349 424.29639 726.14648 L 424.29346 726.14795 C 430.79345 758.47992 437.29346 792.47946 443.79346 823.31543 C 446.96145 836.31542 451.79395 847.65239 458.29395 858.98438 C 480.96192 896.31434 519.79447 944.81401 553.79443 985.31396 C 518.29647 956.14999 477.79633 925.31342 453.46436 899.48145 C 445.46436 891.31345 440.46341 884.98244 437.29541 876.81445 C 422.79542 847.64648 413.13137 826.64646 404.96338 807.14648 C 396.79539 789.3145 388.7954 771.47846 375.79541 745.64648 C 367.67042 730.439 379.14269 720.30828 394.82959 718.7959 z M 352.125 795.79248 C 358.29949 795.86792 364.88283 797.38819 370.96582 800.63818 C 372.63382 807.13818 375.96579 811.96973 379.13379 818.46973 C 387.13378 837.80571 396.96583 858.80573 411.46582 889.6377 C 416.29782 899.30569 422.79783 909.13767 432.46582 918.80566 C 459.96779 947.97363 505.30476 983.47418 544.13672 1014.3062 L 544.13379 1014.3076 C 505.29783 996.47564 463.13425 977.14412 435.63428 957.64014 C 427.63429 951.14014 421.13427 946.30813 414.63428 938.14014 C 387.1343 902.63817 361.30225 863.63867 332.13428 826.4707 C 318.75729 808.34772 333.60152 795.56617 352.125 795.79248 z M 1050.1245 888.68555 C 1052.4553 888.55267 1054.8823 888.84423 1057.2993 889.63623 L 1086.4673 902.63672 L 994.13672 1129.3066 L 964.96729 1116.3018 C 956.96729 1113.1338 952.13132 1103.3013 955.29932 1093.6333 L 1034.6323 899.3042 C 1037.0083 893.30421 1043.1321 889.08417 1050.1245 888.68555 z M 1112.2954 912.30615 L 1141.4634 923.47852 C 1151.1314 928.31051 1154.2993 938.14158 1151.1313 947.80957 L 1071.7998 1142.1401 C 1068.6318 1150.3081 1057.2993 1155.1401 1049.1313 1150.3081 L 1019.9634 1138.9761 L 1112.2954 912.30615 z M 194.2998 991.80469 L 244.46777 1003.1367 L 207.30029 1040.3042 L 194.2998 991.80469 z "
     style="fill-opacity:1;fill:url(#linearGradient2);opacity:1" />
  <path
     fill="url(#b)"
     d="m 580.125,374.25 c -6.006,0 -10.875,-4.869 -10.875,-10.875 0,-6.006 4.869,-10.875 10.875,-10.875 6.006,0 10.875,4.869 10.875,10.875 0,6.006 -4.869,10.875 -10.875,10.875 z m 0,-3.75 a 7.125,7.125 0 1 0 0,-14.25 7.125,7.125 0 0 0 0,14.25 z"
     id="path3"
     style="fill:url(#b);stroke-width:0.75" />
</svg>
