<?xml version="1.0" encoding="UTF-8" standalone="no"?>
<!-- Generator: Adobe Illustrator 19.2.1, SVG Export Plug-In . SVG Version: 6.00 Build 0)  -->

<svg
   version="1.1"
   id="layer"
   x="0px"
   y="0px"
   viewBox="0 0 638.77911 465.6077"
   xml:space="preserve"
   sodipodi:docname="un-environment-united-nations-environment-programme-vector-logo-2022.svg"
   width="638.77911"
   height="465.6077"
   inkscape:version="1.3.2 (091e20e, 2023-11-25, custom)"
   xmlns:inkscape="http://www.inkscape.org/namespaces/inkscape"
   xmlns:sodipodi="http://sodipodi.sourceforge.net/DTD/sodipodi-0.dtd"
   xmlns="http://www.w3.org/2000/svg"
   xmlns:svg="http://www.w3.org/2000/svg"><defs
   id="defs4" /><sodipodi:namedview
   id="namedview4"
   pagecolor="#ffffff"
   bordercolor="#000000"
   borderopacity="0.25"
   inkscape:showpageshadow="2"
   inkscape:pageopacity="0.0"
   inkscape:pagecheckerboard="0"
   inkscape:deskcolor="#d1d1d1"
   inkscape:zoom="1.357362"
   inkscape:cx="321.2113"
   inkscape:cy="237.59322"
   inkscape:window-width="1920"
   inkscape:window-height="1141"
   inkscape:window-x="-9"
   inkscape:window-y="21"
   inkscape:window-maximized="1"
   inkscape:current-layer="layer" />
<style
   type="text/css"
   id="style1">
	.st0{fill:#2AA4CA;}
</style>
<path
   class="st0"
   d="m 547.07274,204.64022 4.00344,-2.04827 c 0,0 -17.13095,-23.18263 -55.39625,-23.18263 -20.11023,0 -30.25844,8.09996 -44.31699,8.09996 0,0 -6.05168,1.02413 -11.07924,-2.97929 0,0 6.05169,10.05511 30.25845,10.05511 17.13094,0 30.25845,-10.05511 42.36182,-10.05511 16.01371,-1.02414 28.11709,14.05854 34.16877,20.11023"
   id="path1"
   style="fill:#cbd5e1;fill-opacity:1;fill-rule:nonzero;stroke-width:0.931029" />
<path
   class="st0"
   d="m 492.60754,204.64022 -4.00342,-2.04827 c 0,0 17.13093,-23.18263 55.39623,-23.18263 20.11023,0 30.25845,8.09996 44.31699,8.09996 0,0 6.05169,1.02413 11.07925,-2.97929 0,0 -6.05169,10.05511 -30.25845,10.05511 -17.13094,0 -30.25845,-10.05511 -42.36183,-10.05511 -16.0137,-1.02414 -29.04811,14.05854 -34.16877,20.11023"
   id="path2"
   style="fill:#cbd5e1;fill-opacity:1;fill-rule:nonzero;stroke-width:0.931029" />
<path
   class="st0"
   d="m 503.77989,161.34736 c -25.23089,-8.09996 -43.29286,-31.18948 -43.29286,-59.49277 0,-5.027561 1.02414,-10.055111 2.04827,-15.082671 l 40.31356,5.02756 c 0,0 15.08267,1.02413 15.08267,28.210181 -1.11723,27.18606 -14.15164,41.3377 -14.15164,41.3377 m 36.21704,0 c 25.23089,-8.09996 43.29285,-31.18948 43.29285,-59.49277 0,-5.027561 -1.02413,-10.055111 -2.04826,-15.082671 l -40.31357,5.02756 c 0,0 -15.08267,1.02413 -15.08267,28.210181 2.04827,27.18606 14.15165,41.3377 14.15165,41.3377 M 521.84186,58.561739 c 5.02756,0 9.03098,4.00342 9.03098,9.03098 0,4.00343 -2.97929,7.07582 -6.05169,9.03099 0,0 -1.02413,0 -1.02413,1.02412 0,1.02414 2.04826,1.02414 2.97929,1.02414 l 53.53418,6.05169 c -8.09996,-25.2309 -31.18948,-44.31699 -59.49277,-44.31699 v 0 c -28.21018,0 -51.39281,18.15507 -59.49276,44.31699 l 53.44107,-6.05169 c 1.02414,0 2.9793,0 2.9793,-1.02414 0,-1.02412 0,-1.02412 -1.02414,-1.02412 -2.97928,-2.04827 -6.05168,-5.02756 -6.05168,-9.03099 2.14137,-5.02756 6.14479,-9.03098 11.17235,-9.03098 M 474.54558,177.45416 c -1.02414,2.04827 -8.09996,0 -13.12752,1.02414 -5.02756,2.04826 -35.286,5.02755 -48.32042,-25.2309 0,0 12.10339,13.12752 22.1585,14.15165 10.05512,1.02413 20.11024,2.97929 29.23432,8.09995 h 2.04826 c 0,0 0,-1.02413 -1.02413,-1.02413 -1.02413,-1.02413 -10.05512,-4.00342 -15.08268,-18.15506 -2.04825,-7.07583 -2.04825,-13.12751 -2.97928,-17.13095 0,0 10.05511,11.07925 14.15164,18.15507 3.81722,6.98272 4.84135,15.08267 12.94131,20.11023 m -30.25845,-15.17577 c -1.02414,1.02413 -2.9793,0 -2.9793,-1.02413 -1.02413,0 -5.02756,-2.9793 -14.15164,-5.02756 -8.09996,-2.9793 -24.20676,-16.10681 -22.1585,-38.2653 0,0 2.04827,8.09995 9.03098,14.15165 6.05169,6.05169 9.03099,6.05169 12.10339,11.07925 3.07239,5.02755 12.10337,15.08266 13.12751,15.08266 v -1.02413 c -1.02414,-1.02413 -2.9793,-6.05169 -4.00343,-8.09995 -1.02413,-2.04827 -6.05169,-15.08267 1.02413,-31.18948 0,0 7.07583,12.10338 6.05169,24.20676 0,12.10338 -1.02413,9.03098 2.04827,19.1792 -1.11724,-2.04827 -0.0931,0 -0.0931,0.93103 m -19.17921,-29.14121 c 0,0 -2.04826,-2.04827 -4.00342,-5.02756 -1.02414,-2.04827 -11.07925,-12.10338 -12.10338,-15.08267 -1.02413,-2.04827 -12.10338,-15.082671 -4.00343,-34.261881 0,0 1.02414,0 1.02414,4.00343 0,4.00342 4.00342,15.08267 8.09995,19.179201 2.9793,4.00342 6.05169,11.07925 7.07583,19.1792 0,0 0,1.02413 1.02412,1.02413 1.02414,1.02413 1.02414,-1.02413 1.02414,-1.02413 0,0 0,-7.07583 0,-11.07925 0,-4.00342 2.04826,-12.103371 6.05169,-17.130931 0,0 2.04826,-2.04827 2.97929,-5.02756 0,0 1.02413,-2.04827 2.04827,-2.9793 0,0 1.02412,13.12751 -4.00344,25.230901 -4.00342,12.10337 -6.05168,14.15164 -5.02755,21.13435 z M 418.1252,96.827029 c 0,0 -1.02412,-2.04826 -1.02412,-2.97928 0,-0.93103 -2.04827,-9.03099 -2.04827,-10.05512 -1.02414,-2.04827 -4.00343,-9.03098 -4.00343,-17.13094 0,-8.09995 4.00343,-20.11023 12.10338,-29.23431 0,0 0,2.97929 -2.97929,9.03098 -2.9793,6.05168 -1.02413,12.10338 -1.02413,13.12751 0,1.02414 1.02413,8.09995 1.02413,11.07925 0,2.97929 -1.02413,11.07924 -1.02413,13.12751 v 1.02413 l 1.02413,-1.02413 c 0,0 0,-7.07583 6.05169,-13.12751 5.02756,-6.05169 15.08267,-10.05511 16.1068,-13.12752 0,0 -1.02413,10.05512 -12.10337,21.13437 -10.05512,10.05511 -7.07583,5.02755 -10.05512,14.15164 -0.0931,0 -2.04827,2.9793 -2.04827,4.00342 v 0 m 6.05169,-34.26187 c 0,0 0,-1.02413 1.02414,-4.00342 2.04826,-2.97929 0,-9.03099 2.04826,-16.1068 2.04827,-8.09997 6.05169,-21.13437 22.1585,-30.25846 0,0 -2.04827,1.02414 -2.04827,2.9793 0,2.04826 -5.02756,9.03098 -6.05169,15.08267 -1.02413,6.05169 -7.07582,15.08267 -9.03098,17.13094 -2.04826,2.04826 -1.02413,2.04826 -1.02413,2.04826 0,0 1.02413,0 2.04826,-2.04826 1.02414,-2.04827 6.05169,-7.07583 12.10338,-9.03098 6.05169,-1.02414 15.08267,-4.00344 15.08267,-5.02756 0,0 -10.05512,10.05512 -19.1792,15.08267 -9.03098,5.02756 -10.05511,4.00343 -16.1068,11.07924 0.93103,1.02414 -1.02414,3.0724 -1.02414,3.0724 m 21.13437,-30.25845 c 0,0 0,-1.02413 2.04826,-2.04826 2.04827,-1.02413 2.9793,-6.05169 6.05169,-11.07925 C 456.3905,14.151649 463.46633,3.072397 480.59726,0 c 0,0 -5.02756,4.003426 -6.05168,5.027558 -1.02414,1.024132 -6.05169,8.099951 -8.09996,10.055121 -2.04826,2.04825 -9.03098,7.07581 -11.07924,8.09995 l -1.02414,1.02413 h 1.02414 c 0,0 7.07581,-4.00342 14.15164,-4.00342 7.07582,0 15.08267,0 16.1068,0 0,0 -7.07582,5.02756 -23.18263,8.09995 -16.1068,2.97929 -13.12751,2.97929 -16.1068,5.02756 0,-1.02414 0,0 -1.02413,-1.02414 m 29.2343,-18.06197 c 0,0 0,-1.02412 2.97929,-2.04826 2.97929,-1.024128 2.04827,-2.97929 10.05511,-7.075819 8.09995,-5.027556 16.10681,-6.051689 25.2309,-2.979293 0,0 -4.00344,0 -4.00344,1.024132 0,1.024132 -6.05168,2.048265 -8.09995,2.979294 -2.04826,0.931029 -10.05511,5.027558 -14.05854,5.027558 -4.00342,1.024128 -2.04826,1.024128 -2.04826,1.024128 h 1.02413 c 0,0 9.03099,-1.024128 14.15164,1.02414 5.12067,2.04826 5.02756,2.04826 7.07583,2.97929 2.04826,1.02413 4.00342,1.02413 5.02756,2.04827 0,0 -5.02756,0 -8.09996,0 -2.97929,0 -11.07924,-1.02414 -15.08268,-2.9793 -4.00342,-2.04826 -8.09995,-2.97929 -10.05511,-2.04826 -2.14137,1.02412 -3.16549,1.02412 -4.09652,1.02412 m 32.2136,-4.096521 c 0,0 0,0 2.9793,-1.024132 2.97929,-1.024132 2.97929,-2.048264 8.09996,-2.979293 5.12065,-0.931029 14.15164,-2.048265 21.13435,2.979293 0,0 -5.02756,0 -6.05168,0 -1.02414,0 -9.03099,1.024132 -11.07925,1.024132 -2.04827,0 -6.05169,-1.024132 -7.07583,0 -1.02412,1.024133 4.00343,2.048261 4.00343,2.048261 0,0 4.00343,0 8.09996,4.00343 4.00342,4.00343 6.05169,6.05169 7.07581,6.05169 0,0 -11.07924,-2.9793 -14.15164,-4.00342 -3.0724,-1.02414 -8.09995,-6.0517 -9.03098,-7.075828 -1.02413,0 -4.00343,-1.024133 -4.00343,-1.024133 m 26.16193,4.096521 c 0,0 7.07582,0 12.10337,2.9793 5.02756,2.9793 9.03098,8.09995 10.05512,10.05512 0,0 -2.9793,-2.04826 -5.02756,-2.9793 -2.04826,-1.02413 -7.07582,-4.00342 -9.03098,-4.00342 0,-0.0931 -7.07583,-5.12066 -8.09995,-6.0517 M 567.18295,178.4783 c 0,0 1.02414,-1.02414 4.00344,-4.00343 2.97929,-2.97929 4.00342,-7.07582 8.09995,-14.15164 4.09653,-7.07583 7.07582,-11.07925 14.15164,-18.15507 0,0 -1.02413,5.02756 -1.02413,7.07582 0,2.04827 -1.02413,10.05511 -6.05169,15.08267 -4.00343,5.02756 -5.02756,6.05169 -10.05512,9.03098 0,0 -2.04826,1.02414 -2.04826,2.04827 0,1.02414 2.97929,0 2.97929,0 0,0 4.00343,-1.02413 5.02756,-2.04827 1.02413,-1.02412 6.05169,-2.97929 8.09996,-4.00342 2.04826,-1.02414 4.00342,-2.04826 8.09995,-2.97929 5.02756,-1.02413 21.13436,-5.02756 27.18605,-16.10681 0,0 -2.04826,6.0517 -4.00342,9.03098 -2.04827,2.9793 -16.10681,20.11023 -34.26188,20.11023 0,0 -7.07582,-1.02413 -11.07925,-1.02413 -4.00342,-1.02413 -5.02756,-1.02413 -6.05168,-1.02413 1.02412,1.11724 -3.07241,1.11724 -3.07241,1.11724 m 41.33771,-63.4962 c 0,0 -7.07583,11.07925 -9.03099,27.18606 -2.04826,16.1068 1.02413,11.07924 -1.02413,18.15507 l -1.02413,2.04826 c 0,0 2.04826,-1.02413 7.07582,-4.00342 5.02755,-2.97929 10.05511,-2.04826 20.11023,-12.10338 10.05511,-10.05512 13.12751,-30.25845 13.12751,-32.21362 0,0 -2.04826,2.04827 -2.04826,4.00344 0,1.95515 -2.04826,5.02755 -2.9793,5.02755 0,0 -12.10338,13.12751 -13.12751,14.15164 -1.02413,1.02413 -8.09995,9.03099 -10.05512,12.10338 -1.02412,2.04826 -6.05168,7.07582 -6.05168,6.0517 0,0 0,-1.02414 0,-2.04827 0,-1.02414 4.00342,-5.02756 5.02756,-10.05512 1.02412,-5.02756 2.04826,-8.09995 2.04826,-11.07925 0,-3.16549 -2.04826,-15.26887 -2.04826,-17.22404 m 10.05511,15.08268 c 0,0 -1.02413,-2.04826 0,-2.97929 0,-1.02414 1.02413,-6.0517 -1.02413,-10.05512 -2.04827,-4.00342 -6.05169,-17.130941 -6.05169,-25.230891 0,-8.09996 1.02413,-9.03098 1.02413,-9.03098 0,0 2.04826,7.07581 2.04826,8.09995 1.02414,1.02413 7.07583,13.127511 7.07583,20.110231 -1.02414,6.05169 -1.02414,9.03098 -1.02414,9.03098 0,0 1.02414,-1.02413 1.02414,-2.04826 0,-1.02413 1.02413,-5.02756 2.97929,-11.07925 2.04827,-5.02756 11.07925,-17.130931 13.12751,-25.230891 0,0 2.97929,14.15165 -5.02756,26.161921 -8.09995,13.12752 -8.09995,10.05511 -11.07924,16.10681 -2.04827,5.12066 -3.0724,6.14479 -3.0724,6.14479 m 7.07582,-36.310141 c -1.02413,0 0,-5.02756 -2.04826,-7.07582 -2.04827,-2.04827 -13.12752,-15.08267 -15.08267,-29.23432 0,0 7.07582,7.07582 9.03098,8.09996 1.02413,1.02413 6.05169,6.05169 8.09995,10.05511 1.02414,4.00342 1.02414,8.09995 2.04827,8.09995 1.02413,0 1.02413,-5.02755 1.02413,-5.02755 0,0 0,-10.05512 1.02413,-14.15165 1.02414,-5.02756 2.97929,-12.10337 2.04826,-16.1068 0,0 4.00343,7.07582 4.00343,17.13094 0,10.05511 -4.00343,18.15506 -5.02755,19.1792 -1.02414,1.02413 -2.04827,6.05169 -2.04827,7.07582 -2.04826,1.95516 -3.0724,1.95516 -3.0724,1.95516 m -14.05852,-70.47891 c 0,0 15.08268,9.03098 13.12751,39.28943 0,0 0,1.02413 -1.02413,0 -1.02413,-1.02413 -4.00342,-6.05168 -6.05168,-6.05168 -1.02414,-1.02414 -15.08268,-9.03099 -21.13437,-22.15851 0,0 1.02413,0 2.04826,1.02414 1.02413,1.02413 5.02756,2.9793 6.05169,4.00342 1.02414,1.02414 6.05169,1.02414 10.05512,5.02756 4.00342,4.00343 5.02756,7.07583 6.05169,9.03099 0,0 1.02413,1.02413 0,-1.02413 -1.02413,-2.04827 -1.02413,-4.00343 -2.9793,-6.0517 -1.02413,-4.00342 -2.97929,-9.03098 -2.97929,-13.12751 -1.21033,-2.88619 -2.23447,-7.91375 -3.1655,-9.96201 m -3.07239,10.05512 c 0,0 0,-2.04827 -1.02414,-5.02756 -1.02413,-2.9793 0,-6.05169 -5.02755,-13.12751 -2.9793,-4.003428 -12.10338,-7.075825 -12.10338,-7.075825 0,0 2.97929,4.003425 4.00342,6.051695 2.04826,2.04826 2.04826,4.00342 2.97929,5.02755 1.02414,1.02414 4.00343,4.00343 5.02756,6.0517 0,0 1.02413,1.02412 1.02413,2.04826 0,1.02413 -1.02413,0 -2.04826,-1.02414 0,0 -6.05169,-5.02756 -9.03099,-5.02756 -2.97928,0 -10.05511,-1.02412 -12.10337,-2.04826 0,0 8.09995,7.07582 16.10681,9.03099 9.21718,1.11723 12.19648,5.12066 12.19648,5.12066 m -18.15507,-18.15507 c 0,0 -8.09996,-11.079251 -22.1585,-10.055119 0,0 1.02413,1.024133 2.04827,1.024133 1.02412,0 4.00342,2.979293 6.05168,4.003425 1.95516,0 5.02756,3.072401 14.05855,5.027561"
   id="path3"
   style="fill:#cbd5e1;fill-opacity:1;fill-rule:nonzero;stroke-width:0.931029" />
<path
   class="st0"
   d="M 155.10946,0.093104 V 134.06821 c 0,12.10337 -2.04827,22.15849 -6.05169,31.18947 -4.00342,9.03099 -9.03098,16.10681 -16.10681,22.1585 -7.07581,6.05168 -15.08267,10.05512 -24.20676,13.12751 -9.030977,2.97929 -20.110221,5.02756 -31.189469,5.02756 -11.079247,0 -21.134363,-2.04827 -31.189478,-5.02756 C 36.310138,197.56439 28.210184,192.44374 22.158494,187.41618 16.106805,182.38862 10.055115,173.26454 6.0516893,164.23355 2.0482643,155.20256 0,145.05435 0,133.9751 V 0.093104 H 41.244592 V 134.06821 c 0,13.12751 2.979294,23.18262 9.030984,29.23431 6.05169,6.05169 16.106805,8.09996 27.186052,8.09996 11.079248,0 20.110235,-2.9793 26.161922,-9.03099 6.05168,-6.05168 9.03098,-16.1068 9.03098,-29.23431 V 0.093104 Z M 353.60488,202.59195 H 311.24305 L 230.61593,69.547879 V 202.59195 h -41.3377 V 0.093104 h 41.3377 L 312.26719,133.13718 V 0.093104 h 41.33769 z M 30.165345,332.56363 c -9.030983,0 -16.106804,-2.97929 -21.1343617,-8.09996 C 2.9792933,319.43612 0,312.3603 0,303.32931 v -2.04826 c 0,-6.05169 1.0241321,-12.10339 4.0034253,-16.10681 2.979294,-4.00342 5.027558,-8.09995 10.0551157,-11.07925 4.003425,-2.97929 9.030982,-4.00342 14.151643,-4.00342 8.099954,0 15.082673,2.9793 19.179202,8.09995 4.096527,5.12066 7.075821,13.12751 7.075821,22.1585 v 7.07582 H 16.013702 c 0,4.00342 2.048264,7.07583 5.027558,10.05511 2.979293,2.04827 6.051689,4.00343 10.055115,4.00343 6.05169,0 11.079246,-2.04826 14.151643,-7.07582 l 8.099955,9.03098 c -2.048265,2.9793 -6.051691,6.05169 -10.055116,8.09995 -4.096528,0.0931 -8.099954,1.02414 -13.127512,1.02414 m -2.048264,-49.34455 c -2.979293,0 -6.051689,1.02413 -8.099953,2.9793 -2.048265,2.04826 -2.979294,5.02755 -4.003426,9.03098 h 22.158495 v -1.02414 c 0,-4.00342 -1.024132,-6.05168 -2.979294,-8.09995 -1.024132,-1.86206 -4.003425,-2.88619 -7.075822,-2.88619 M 78.48576,271.1157 v 7.07582 c 4.003426,-5.02756 10.055116,-8.09995 17.130933,-8.09995 6.051697,0 11.079247,2.04827 14.151647,6.05169 2.9793,4.00342 5.02756,9.03098 5.02756,17.13093 v 39.28944 H 99.713223 v -39.28944 c 0,-2.97928 -1.02413,-6.05168 -2.04826,-7.07581 -1.02413,-1.02414 -4.00343,-2.04827 -7.075823,-2.04827 -5.027558,0 -8.099954,2.04827 -10.055116,6.05169 v 43.29285 H 63.403087 v -60.42378 z m 71.59615,41.3377 11.07924,-41.3377 h 17.13094 l -20.11023,60.42379 H 143.09919 L 122.98895,271.1157 h 16.01371 z m 35.286,-57.44451 c 0,-2.04826 1.02413,-4.00342 2.04827,-6.05169 1.02412,-2.04826 4.00342,-2.04826 6.05168,-2.04826 2.9793,0 5.02756,1.02414 6.05169,2.04826 2.04826,2.04827 2.04826,4.00343 2.04826,6.05169 0,2.04827 -1.02412,5.02756 -2.04826,6.0517 -2.04826,2.04826 -4.00342,2.04826 -6.05169,2.04826 -2.97929,0 -5.02756,-1.02413 -6.05168,-2.04826 -1.11724,-1.02414 -2.04827,-2.9793 -2.04827,-6.0517 m 17.13094,76.62371 h -16.10681 v -60.4238 h 16.10681 z m 47.29628,-45.34113 c -2.04827,0 -4.00342,0 -6.05169,0 -6.0517,0 -10.05512,2.04827 -12.10338,6.05169 v 39.28944 h -16.10681 v -60.4238 h 16.10681 v 7.07583 c 2.97929,-5.02756 8.09995,-8.09996 13.12751,-8.09996 2.04826,0 2.97929,0 5.02756,1.02413 z m 4.09653,15.08268 c 0,-6.05169 1.02412,-11.07924 2.97929,-16.1068 2.04827,-5.02756 5.02755,-8.09996 10.05511,-11.07925 4.00344,-2.9793 9.03099,-4.00343 15.08268,-4.00343 8.09995,0 15.08267,2.04826 20.11023,8.09996 5.02755,5.02755 8.09995,12.10337 9.03098,20.11023 v 4.00342 c 0,9.03098 -2.04826,17.13094 -8.09996,22.1585 -5.02755,6.05168 -12.10337,8.09995 -20.11023,8.09995 -8.00684,0 -15.08267,-2.97929 -20.11023,-8.09995 -5.95858,-6.05169 -8.93787,-13.12752 -8.93787,-23.18263 z m 16.1068,1.02413 c 0,6.05169 1.02413,10.05512 2.9793,13.12751 2.04826,2.9793 5.02755,5.02756 9.03098,5.02756 4.00342,0 7.07582,-2.04826 9.03098,-5.02756 2.04827,-2.97929 2.97929,-8.09995 2.97929,-14.15164 0,-6.05169 -1.02413,-10.05512 -2.97929,-13.12751 -2.04826,-2.97929 -5.02756,-5.02756 -9.03098,-5.02756 -4.00343,0 -7.07582,2.04827 -9.03098,5.02756 -1.95517,3.07239 -2.9793,7.07582 -2.9793,14.15164 m 65.45135,-31.28258 v 7.07582 c 4.00343,-5.02756 10.05512,-8.09995 17.13094,-8.09995 6.05169,0 11.07925,2.04827 14.15164,6.05169 2.9793,4.00342 5.02756,9.03098 5.02756,17.13093 v 39.28944 h -16.10681 v -39.28944 c 0,-2.97928 -1.02412,-6.05168 -2.04826,-7.07581 -1.02413,-1.02414 -4.00342,-2.04827 -7.07581,-2.04827 -5.02756,0 -8.09997,2.04827 -10.05512,6.05169 v 43.29285 h -16.10681 v -60.42378 z m 64.52032,0 v 7.07582 c 4.00343,-5.02756 10.05512,-8.09995 17.13095,-8.09995 8.09995,0 13.12751,2.9793 16.1068,9.03098 4.00343,-6.05168 10.05511,-9.03098 18.15506,-9.03098 6.0517,0 11.07925,2.04827 14.15165,6.05169 2.9793,4.00342 5.02756,10.05512 5.02756,17.13093 v 39.28944 h -16.1068 v -38.2653 c 0,-2.9793 -1.02414,-6.05169 -2.04827,-8.09995 -1.02414,-2.04827 -4.00342,-2.04827 -7.07582,-2.04827 -5.02756,0 -8.09995,2.04827 -10.05512,7.07582 v 41.3377 h -16.1068 v -38.2653 c 0,-2.9793 -1.02414,-6.05169 -2.04826,-8.09995 -1.02414,-2.04827 -4.00344,-2.04827 -7.07583,-2.04827 -5.02756,0 -8.09995,2.04827 -10.05512,6.05169 v 43.29285 h -16.10679 v -60.42378 c 0.93102,-1.95517 16.10679,-1.95517 16.10679,-1.95517 z m 110.79248,61.44793 c -9.03098,0 -16.1068,-2.97929 -21.13436,-8.09996 -5.02756,-5.12066 -8.09996,-13.12751 -8.09996,-22.15849 v -2.04827 c 0,-6.05169 1.02413,-12.10337 4.00343,-16.1068 2.97929,-4.00343 5.02756,-8.09996 10.05512,-11.07924 4.00342,-2.9793 9.03098,-4.00344 14.15163,-4.00344 8.09997,0 15.08268,2.9793 19.17921,8.09996 4.09653,5.12066 7.07582,13.12752 7.07582,22.1585 v 7.07581 h -38.2653 c 0,4.00344 2.04826,7.07583 5.02756,10.05512 2.97929,2.04827 6.05168,4.00343 10.05512,4.00343 6.05168,0 11.07924,-2.04827 14.15164,-7.07583 l 8.09996,9.03098 c -2.04827,2.9793 -6.0517,6.0517 -10.05512,8.09997 -5.12066,1.11723 -9.21719,2.04826 -14.24475,2.04826 m -1.95517,-49.34455 c -2.97928,0 -6.05168,1.02413 -8.09995,2.9793 -2.04826,1.95516 -2.97929,5.02755 -4.00342,9.03098 h 22.15849 v -1.02414 c 0,-4.00342 -1.02412,-6.05168 -2.97929,-8.09995 -1.02413,-1.86206 -4.09653,-2.88619 -7.07583,-2.88619 m 50.36869,-12.10338 v 7.07582 c 4.00342,-5.02756 10.05511,-8.09995 17.13093,-8.09995 6.05169,0 11.07925,2.04827 14.15165,6.05169 2.97929,4.00342 5.02755,9.03098 5.02755,17.13093 v 39.28944 h -16.1068 v -39.28944 c 0,-2.97928 -1.02413,-6.05168 -2.04826,-7.07581 -1.02414,-1.02414 -4.00343,-2.04827 -7.07582,-2.04827 -5.02756,0 -8.09996,2.04827 -10.05512,6.05169 v 43.29285 h -16.19991 v -60.42378 z m 68.52374,-15.08267 v 15.08267 h 10.05512 v 12.10338 h -10.05512 v 30.25845 c 0,2.04826 0,4.00342 1.02414,5.02756 1.02413,1.02413 2.04827,1.02413 5.02755,1.02413 2.04827,0 2.9793,0 5.02756,0 v 12.10338 c -2.97929,1.02413 -6.05169,2.04826 -10.05511,2.04826 -11.07924,0 -17.13094,-6.05168 -17.13094,-17.13093 v -32.21361 h -9.03098 v -12.10339 h 9.03098 v -15.08267 h 16.1068 z M 54.372105,411.23559 c 0,9.03099 -2.048265,17.13094 -6.05169,22.1585 -4.003426,5.02756 -10.055116,8.09995 -17.130937,8.09995 -6.05169,0 -11.079247,-2.04827 -15.082673,-6.05169 v 29.14121 H 0 v -84.63055 h 15.082673 v 6.0517 c 4.003425,-5.02756 9.030982,-7.07583 15.082672,-7.07583 7.075823,0 13.127512,2.9793 17.130937,8.09995 4.003426,6.05169 7.075823,14.05855 7.075823,24.20676 z m -16.106806,-1.02412 c 0,-6.0517 -1.024131,-10.05512 -2.979293,-13.12752 -1.955161,-3.0724 -5.027557,-4.00343 -9.030983,-4.00343 -5.027558,0 -8.099954,2.04827 -10.055115,6.0517 v 24.20676 c 2.048263,4.00342 5.027557,6.05168 10.055115,6.05168 7.913748,-0.0931 12.010276,-6.14479 12.010276,-19.17919 m 59.399664,-14.15165 c -2.04827,0 -4.00343,0 -6.051691,0 -6.05169,0 -10.055115,2.04826 -12.10338,6.05168 v 40.31357 H 64.42722 v -60.4238 h 15.082672 v 7.07583 c 2.979294,-5.02756 8.099955,-8.09995 13.127511,-8.09995 2.04826,0 2.97929,0 5.02756,1.02412 z m 4.003427,14.15165 c 0,-6.0517 1.02413,-11.07925 2.97928,-16.10681 2.04827,-5.02756 5.02756,-8.09995 10.05512,-11.07925 4.00343,-2.97929 9.03099,-4.00343 15.08267,-4.00343 8.09996,0 15.08267,2.04826 20.11023,8.09996 5.02756,5.02756 8.09997,12.10337 9.03099,20.11023 v 4.00342 c 0,9.03099 -2.04827,17.13094 -8.09996,22.1585 -6.05168,5.02756 -12.10337,8.09995 -20.11022,8.09995 -8.00686,0 -15.08267,-2.97929 -20.11023,-8.09995 -5.02756,-5.12066 -8.93788,-13.12751 -8.93788,-23.18262 z m 16.1068,1.02412 c 0,6.05169 1.02413,10.05512 2.97929,13.12751 2.04827,2.9793 5.02756,5.02756 9.03098,5.02756 4.00343,0 7.07583,-2.04826 9.03099,-5.02756 2.04826,-2.97929 2.97929,-8.09995 2.97929,-14.15163 0,-6.0517 -1.02413,-10.05512 -2.97929,-13.12752 -2.04827,-2.97929 -5.02756,-5.02756 -9.03099,-5.02756 -4.00342,0 -7.07582,2.04827 -9.03098,5.02756 -1.95516,3.0724 -2.97929,8.09996 -2.97929,14.15164 m 48.41351,-1.02412 c 0,-9.03099 2.04827,-17.13095 6.0517,-22.1585 4.00342,-6.0517 10.05511,-8.09996 18.15506,-8.09996 6.0517,0 11.07926,2.04826 15.08268,7.07582 l 1.02413,-6.05168 h 15.08268 v 58.46862 c 0,5.02756 -1.02414,10.05512 -4.00344,14.15165 -2.97928,4.00343 -6.05168,7.07583 -10.0551,9.03099 -4.00343,2.04826 -9.03099,2.97929 -15.08268,2.97929 -4.00343,0 -9.03099,-1.02414 -13.12752,-2.97929 -4.00342,-2.04827 -7.07581,-4.00343 -9.03098,-7.07583 l 7.07583,-10.05511 c 4.00342,5.02755 9.03098,7.07582 14.15164,7.07582 4.00343,0 8.09996,-1.02413 10.05511,-2.97929 2.04827,-2.04826 4.00343,-5.02756 4.00343,-10.05512 v -2.9793 c -4.00343,4.00344 -8.09995,6.0517 -14.15164,6.0517 -7.07583,0 -13.12751,-2.97929 -17.13094,-8.09996 -4.00343,-5.12066 -8.09996,-14.24474 -8.09996,-24.29985 z m 16.10681,1.02412 c 0,5.02756 1.02414,10.05512 2.9793,13.12751 2.04826,2.9793 5.02755,5.02756 9.03098,5.02756 5.02756,0 8.09995,-2.04826 10.05512,-5.02756 v -25.23088 c -2.04827,-4.00343 -5.02756,-5.02756 -10.05512,-5.02756 -4.00343,0 -7.07583,2.04826 -9.03098,5.02756 -1.95516,1.02413 -2.9793,6.05169 -2.9793,12.10337 m 85.65469,-15.17577 c -2.04826,0 -4.00343,0 -6.0517,0 -6.05168,0 -10.05511,2.04826 -12.10337,6.05168 v 40.31357 h -16.10681 v -60.4238 h 15.08267 v 7.07583 c 2.9793,-5.02756 8.09996,-8.09995 13.12751,-8.09995 2.04827,0 2.9793,0 5.02756,1.02412 z m 40.31356,45.34112 c -1.02413,-2.04826 -1.02413,-2.97929 -2.04826,-5.02756 -4.00343,4.00343 -9.03098,7.07583 -15.08268,7.07583 -6.05169,0 -11.07925,-2.04827 -14.15164,-5.02756 -2.97929,-2.9793 -5.02756,-9.03099 -5.02756,-14.15165 0,-6.05169 2.04827,-11.07925 7.07583,-15.08267 5.02756,-4.00342 11.07924,-5.02756 20.11023,-5.02756 h 7.07582 v -2.97929 c 0,-2.97929 -1.02414,-5.02756 -2.04826,-7.07582 -1.02414,-2.04827 -4.00344,-2.04827 -7.07583,-2.04827 -3.0724,0 -5.02756,1.02413 -6.05169,2.04827 -1.02413,1.02413 -2.04826,2.97929 -2.04826,5.02756 h -16.10681 c 0,-2.9793 1.02413,-7.07583 2.9793,-10.05512 2.04826,-2.9793 5.02755,-5.02756 9.03098,-7.07583 4.00342,-2.04826 8.09995,-2.04826 13.12751,-2.04826 7.07582,0 13.12751,2.04826 17.13094,6.0517 4.00342,4.00342 6.05168,9.03098 6.05168,16.10679 v 26.16193 c 0,6.05169 1.02414,10.05511 2.04827,13.12751 v 1.02413 z M 295.13625,430.3217 c 2.04827,0 5.02755,0 6.05169,-2.04827 2.04827,-1.02414 2.9793,-2.04826 4.00342,-4.00343 v -10.05511 h -6.05168 c -8.09996,0 -12.10339,2.97929 -13.12752,8.09995 v 1.02414 c 0,2.04826 1.02413,4.00342 2.04827,5.02755 3.07239,0.93103 5.12066,1.95517 7.07582,1.95517 m 55.39624,-49.34455 v 7.07582 c 4.00342,-5.02756 10.05511,-8.09996 17.13093,-8.09996 8.09995,0 13.12751,2.9793 16.10681,9.03098 4.00342,-6.05168 10.05511,-9.03098 18.15507,-9.03098 6.05169,0 11.07925,2.04826 14.15164,6.0517 3.0724,4.00342 5.02756,10.05511 5.02756,17.13093 v 39.28943 h -16.10681 v -38.2653 c 0,-2.97929 -1.02413,-6.05169 -2.04826,-8.09995 -1.02413,-2.04827 -4.00342,-2.9793 -7.07583,-2.9793 -5.02755,0 -8.09995,2.04827 -10.05511,7.07583 v 42.36183 h -16.1068 v -38.26531 c 0,-2.97929 -1.02413,-6.05168 -2.04827,-8.09995 -1.02412,-2.97929 -2.97929,-2.97929 -7.07582,-2.97929 -5.02755,0 -8.09995,2.04826 -10.05511,6.05168 v 43.29287 h -16.10681 v -60.4238 c 1.02413,-1.11723 16.10681,-1.11723 16.10681,-1.11723 z m 97.75806,0 v 7.07582 c 4.00343,-5.02756 10.05511,-8.09996 17.13094,-8.09996 8.09995,0 13.12751,2.9793 16.1068,9.03098 4.00343,-6.05168 10.05511,-9.03098 18.15508,-9.03098 6.05168,0 11.07924,2.04826 14.15163,6.0517 2.9793,4.00342 5.02756,10.05511 5.02756,17.13093 v 39.28943 h -15.08267 v -38.2653 c 0,-2.97929 -1.02413,-6.05169 -2.04826,-8.09995 -1.02414,-2.04827 -4.00343,-2.9793 -7.07582,-2.9793 -5.02756,0 -8.09996,2.04827 -10.05512,7.07583 v 42.36183 h -16.1068 v -38.26531 c 0,-2.97929 -1.02414,-6.05168 -2.04827,-8.09995 -1.02413,-2.97929 -4.00343,-2.97929 -7.07582,-2.97929 -5.02756,0 -8.09995,2.04826 -10.05512,6.05168 v 43.29287 h -16.1068 v -60.4238 c 1.02413,-1.11723 15.08267,-1.11723 15.08267,-1.11723 z m 111.90971,61.44792 c -9.03099,0 -16.1068,-2.9793 -21.13436,-8.09995 -5.02756,-5.12066 -8.09995,-13.12751 -8.09995,-22.1585 v -2.04826 c 0,-6.05169 1.02412,-12.10338 4.00342,-16.10681 2.9793,-4.00342 5.02756,-8.09995 10.05511,-11.07924 4.00343,-2.9793 9.03098,-4.00343 14.15165,-4.00343 8.09995,0 15.08267,2.9793 19.1792,8.09995 4.09653,5.12067 7.07582,13.12752 7.07582,22.1585 v 7.07582 h -38.2653 c 0,4.00343 2.04827,7.07583 5.02756,10.05511 2.9793,2.04827 6.05169,4.00344 10.05511,4.00344 6.0517,0 11.07925,-2.04827 14.15165,-7.07583 l 8.09995,9.03098 c -2.04826,2.9793 -6.05169,6.05169 -10.05511,8.09996 -5.21377,1.02413 -10.24132,2.04826 -14.24475,2.04826 m -2.04827,-50.36868 c -2.97928,0 -6.05169,1.02413 -8.09995,2.9793 -2.04826,2.04826 -2.9793,5.02755 -4.00342,9.03098 h 22.15849 v -0.93103 c 0,-4.00342 -1.02414,-6.05169 -2.97929,-8.09995 -1.02413,-1.95517 -4.09653,-2.9793 -7.07583,-2.9793"
   id="path4"
   style="fill:#cbd5e1;fill-opacity:1;fill-rule:nonzero;stroke-width:0.931029" />
</svg>
