<?xml version="1.0" encoding="UTF-8" standalone="no"?>
<svg
   width="1057.7842"
   height="1580.4645"
   viewBox="0 0 79.166895 118.27185"
   version="1.1"
   id="svg5"
   sodipodi:docname="wwf.svg"
   inkscape:version="1.3.2 (091e20e, 2023-11-25, custom)"
   xmlns:inkscape="http://www.inkscape.org/namespaces/inkscape"
   xmlns:sodipodi="http://sodipodi.sourceforge.net/DTD/sodipodi-0.dtd"
   xmlns="http://www.w3.org/2000/svg"
   xmlns:svg="http://www.w3.org/2000/svg">
  <defs
     id="defs5" />
  <sodipodi:namedview
     id="namedview5"
     pagecolor="#ffffff"
     bordercolor="#000000"
     borderopacity="0.25"
     inkscape:showpageshadow="2"
     inkscape:pageopacity="0.0"
     inkscape:pagecheckerboard="0"
     inkscape:deskcolor="#d1d1d1"
     inkscape:zoom="0.708"
     inkscape:cx="454.80226"
     inkscape:cy="769.0678"
     inkscape:window-width="1920"
     inkscape:window-height="1141"
     inkscape:window-x="-9"
     inkscape:window-y="21"
     inkscape:window-maximized="1"
     inkscape:current-layer="svg5" />
  <path
     d="m 27.632507,96.701801 c -0.752396,0 -1.379603,0.37746 -1.630612,1.00341 l -3.136036,8.153689 -0.251009,0.87822 -0.250377,-0.87822 -2.508829,-7.902679 v -0.12519 c -0.251009,-0.62721 -0.878216,-1.12923 -1.630612,-1.12923 H 14.21078 c -0.878216,0.12519 -1.505423,0.7524 -1.505423,1.75643 0,0.25038 0.125188,0.50139 0.125188,0.75114 l 0.501387,1.756429 -1.881622,4.8912 -0.376197,0.87885 -0.25101,-0.87885 -2.3836401,-7.902049 v -0.12519 h -0.125188 c -0.125189,-0.6272 -0.752396,-1.12922 -1.505424,-1.12922 h -4.013619 c -0.878217,0.12519 -1.630612,0.75176 -1.630612,1.75643 0,0.25038 0.125821,0.50139 0.250377,0.75113 l 5.895241,17.813439 c 0.251009,0.75113 0.878216,1.25315 1.631244,1.25315 0.752396,0 1.3796031,-0.50202 1.6306121,-1.12859 l 4.139441,-10.5367 0.376197,-1.00341 0.25101,1.00341 3.512233,10.41214 c 0.125188,0.75113 0.878216,1.25315 1.630612,1.25315 0.753028,0 1.380235,-0.50202 1.631244,-1.12859 l 7.024467,-18.062549 c 0.125188,-0.25038 0.125188,-0.50139 0.125188,-0.7524 6.33e-4,-0.87695 -0.752395,-1.62935 -1.629979,-1.62935 z m 29.729111,0 c -0.752396,0 -1.380868,0.37746 -1.630612,1.00341 l -3.136036,8.153689 -0.250377,0.87822 -0.250377,-0.87822 -2.509461,-7.902679 v -0.12519 c -0.250377,-0.62721 -0.878216,-1.12923 -1.629979,-1.12923 h -4.014885 c -0.878216,0.12519 -1.505423,0.7524 -1.505423,1.75643 0,0.25038 0,0.50139 0.125188,0.75114 l 0.502019,1.756429 -1.882254,4.8912 -0.37683,0.87885 -0.250377,-0.87885 -2.38364,-7.902049 -0.125188,-0.12519 c -0.125189,-0.6272 -0.752396,-1.12922 -1.504791,-1.12922 h -4.014252 c -0.878217,0.12519 -1.630612,0.75176 -1.630612,1.75643 0,0.25038 0.12582,0.50139 0.251009,0.75113 l 5.895873,17.813439 c 0.250377,0.75113 0.878217,1.25315 1.631245,1.25315 0.751763,0 1.379602,-0.50202 1.629979,-1.12859 l 4.140705,-10.5367 0.376198,-1.00341 0.250377,1.00341 3.513498,10.41214 c 0.124556,0.75113 0.878216,1.25315 1.62998,1.25315 0.752395,0 1.380867,-0.50202 1.631244,-1.12859 l 7.023834,-18.062549 c 0.125189,-0.25038 0.125189,-0.50139 0.125189,-0.7524 -6.32e-4,-0.87695 -0.75366,-1.62935 -1.631244,-1.62935 z m 19.316967,0 H 62.754208 c -0.878217,0 -1.504159,0.62721 -1.504159,1.50543 v 18.439379 c 0.124556,0.87885 0.751763,1.50542 1.629979,1.50542 h 3.887799 c 0.878217,0 1.505424,-0.62657 1.505424,-1.50542 v -8.65445 h 5.770685 c 0.751131,0 1.504791,-0.75239 1.504791,-1.50542 0,-0.87822 -0.751764,-1.63125 -1.504791,-1.63125 h -5.770685 v -4.891199 h 8.404702 c 0.878851,0 1.630611,-0.75176 1.630611,-1.63061 6.3e-4,-0.87885 -0.75113,-1.63188 -1.629979,-1.63188 z M 55.103166,37.746232 c 2.509461,2.759838 2.759206,11.289728 9.156465,7.902683 3.762611,-2.00681 3.762611,-10.5367 -1.379603,-13.672735 -4.140704,-2.38364 -6.397891,0.878216 -7.903315,4.891836 -0.124556,0.376197 -0.124556,0.627207 0.126453,0.878216 z m -9.909493,-1.379603 c -2.759205,2.132631 -4.515638,8.278881 -9.407474,6.146251 -4.01362,-2.00681 -4.389817,-9.784305 2.508828,-13.421727 4.766648,-2.257819 7.150288,2.132631 7.150288,6.773458 -6.32e-4,0.125188 -0.125821,0.376198 -0.251642,0.502018 z m 6.523081,15.428536 c 2.634017,-0.250377 2.006809,-2.759205 0,-3.261224 -1.756433,-0.627207 -4.39045,-1.003405 -6.39726,-0.878216 -3.387045,0 -3.261224,2.634017 -1.506056,3.136035 1.380235,0.376198 2.257187,0.501387 3.386413,2.00681 1.004037,2.007442 0.502651,-0.627207 4.516903,-1.003405 z M 64.135075,8.1429424 c 3.261224,-5.519043 9.031276,-4.515638 11.916935,-1.755801 3.136664,3.010215 3.763244,6.5224476 2.509464,8.9060876 -1.631248,3.261224 -5.895244,7.150288 -8.655082,3.387045 -1.25315,-1.7558 -3.763243,-3.763243 -5.268034,-4.265261 -2.134527,-1.003405 -2.510093,-2.885659 -0.503283,-6.2720706 z"
     fill="#272728"
     id="path1"
     style="stroke-width:0.632265;fill:#cbd5e1;fill-opacity:1" />
  <path
     d="m 77.306424,32.352377 c -0.25038,-1.003405 -0.753028,-0.878216 -0.753028,-0.125188 0.25101,10.034681 -5.76942,20.823023 -18.563939,20.948211 -3.261224,0 -2.257187,5.143478 -8.278881,2.508829 -4.265261,-2.885027 -6.77409,2.885026 -9.784937,-3.261224 -0.752395,-1.756433 -1.756432,-2.508829 -3.010847,-2.885027 -12.66933,-3.136035 -16.683582,-20.572013 -5.519043,-34.620947 2.132631,1.380235 3.010215,1.630613 5.393855,-0.627207 1.129226,-1.129225 3.261224,-2.38364 4.389817,-2.759837 2.634017,-1.003405 4.140073,-2.1326306 1.755801,-7.2754756 -1.097612,-2.422841 -2.59292,-3.71329395 -4.186228,-4.26526095 H 34.488159 A 9.7779817,9.7779817 0 0 0 31.144108,1.7456824 C 27.882884,4.3796994 25.750253,8.5191404 29.76324,13.411608 18.475409,21.063282 16.4686,30.470756 16.718977,38.749637 c 0.250377,8.655079 -1.881622,7.902683 0.878216,16.68295 0.250377,0.753028 -0.376198,0.753028 -0.752396,0.502651 -11.7911141,-7.526485 -18.1883731,-30.607327 0.25101,-43.276658 0.376198,-0.376198 0.251009,-0.878216 -1.254415,0 -15.93118612,8.404702 -17.4359781,24.711454 -14.8019611,35.750173 1.254414,5.268034 -0.62720702,6.272071 1.380235,13.296537 4.766648,14.550951 8.7802671,15.804101 14.5503201,16.181561 10.411511,0 3.261224,-5.77005 3.763243,-12.920336 0,-0.502651 0.502018,-0.627208 0.752395,0.250377 5.770053,12.793889 9.784305,24.460449 24.836643,23.331219 8.654446,-1.12859 3.887799,-5.39386 3.260592,-7.90332 -6.396628,-21.197952 9.156465,-26.215609 4.766647,-5.51904 -2.884394,11.91694 6.272071,10.66189 12.794519,6.39726 6.648901,-4.264 14.929049,-33.240079 10.162399,-49.170634 z M 51.967131,57.565218 c -1.505424,3.763875 -8.906088,2.50946 -9.157098,-1.253782 0,-0.125189 0.25101,-0.125189 0.25101,0 3.386412,0.752395 6.521816,1.128593 8.654446,1.128593 0.126453,0 0.251642,-0.125188 0.251642,0.125189 z"
     fill="#272728"
     id="path2"
     style="stroke-width:0.632265;fill:#cbd5e1;fill-opacity:1" />
  <path
     d="m 19.478814,84.409301 a 3.6412154,3.6412154 0 0 1 -3.637422,3.63806 c -2.13263,0 -3.763242,-1.63125 -3.763242,-3.63806 0,-2.00744 1.630612,-3.76261 3.763242,-3.76261 2.00681,-6.3e-4 3.637422,1.75517 3.637422,3.76261 z m -3.637422,-4.39045 c -2.508828,0 -4.515638,1.88226 -4.515638,4.38982 0,2.38427 2.00681,4.38982 4.515638,4.38982 2.38364,0 4.389818,-2.00681 4.389818,-4.38982 0,-2.5082 -2.00681,-4.38982 -4.389818,-4.38982 z"
     fill="#272728"
     id="path3"
     style="stroke-width:0.632265;fill:#cbd5e1;fill-opacity:1" />
  <path
     d="m 17.095807,85.036511 c -0.125821,0.62721 -0.627207,1.00404 -1.129226,1.00404 -0.878216,0 -1.505424,-0.7524 -1.505424,-1.63125 0,-0.87821 0.502019,-1.62998 1.380235,-1.62998 0.627208,0 1.128594,0.3762 1.254415,0.87822 h 0.627207 c -0.125821,-1.00341 -0.878217,-1.50543 -1.881622,-1.50543 -1.254414,0 -2.13263,1.00341 -2.13263,2.25719 0,1.25442 0.878216,2.25782 2.257819,2.25782 0.878216,0 1.505424,-0.62657 1.756433,-1.63061 z m 60.461627,5.14284 a 3.6405832,3.6405832 0 0 1 -3.638055,3.63806 c -2.13263,0 -3.76261,-1.63061 -3.76261,-3.63806 0,-2.00807 1.62998,-3.76387 3.76261,-3.76387 2.006178,0 3.638055,1.75643 3.638055,3.76387 z m -3.638055,-4.39045 c -2.50946,0 -4.51627,1.88226 -4.51627,4.39045 0,2.38364 2.00681,4.38982 4.51627,4.38982 2.38364,0 4.389815,-2.00744 4.389815,-4.38982 0,-2.50882 -2.006807,-4.39045 -4.389815,-4.39045 z"
     fill="#272728"
     id="path4"
     style="stroke-width:0.632265;fill:#cbd5e1;fill-opacity:1" />
  <path
     d="m 73.166351,90.430361 h 0.626575 l 1.129858,1.88226 h 0.751131 l -1.253782,-1.88226 c 0.627207,-0.12582 1.128594,-0.37683 1.128594,-1.12922 0,-0.87822 -0.501387,-1.25378 -1.504791,-1.25378 h -1.505424 v 4.26526 h 0.626575 z m 0,-0.50138 v -1.25442 h 0.752396 c 0.501386,0 1.004037,0 1.004037,0.50265 0,0.75177 -0.502651,0.75177 -1.004037,0.75177 z"
     fill="#272728"
     id="path5"
     style="stroke-width:0.632265;fill:#cbd5e1;fill-opacity:1" />
</svg>
